<?xml version="1.0" encoding="UTF-8"?>
<svg id="Layer_2" data-name="Layer 2" xmlns="http://www.w3.org/2000/svg" viewBox="0 0 716.67 616.67">
  <defs>
    <style>
      .cls-1 {
        fill: #315c77;
        fill-rule: evenodd;
        stroke: #fff;
        stroke-miterlimit: 133.33;
        stroke-width: 0px;
      }
    </style>
  </defs>
  <g id="Layer_1-2" data-name="Layer 1">
    <g id="SVGRepo_iconCarrier" data-name="SVGRepo iconCarrier">
      <g id="style_fill" data-name="style=fill">
        <g id="email">
          <path id="Subtract" class="cls-1" d="M191.67,0C137.84,0,89.16,13.46,53.83,46.27,18.16,79.39,0,128.57,0,191.67v233.33c0,63.1,18.15,112.28,53.82,145.4,35.33,32.81,84.01,46.26,137.84,46.26h333.33c53.83,0,102.51-13.45,137.84-46.26,35.67-33.12,53.82-82.3,53.82-145.4v-233.33c0-63.1-18.15-112.28-53.82-145.4C627.52,13.46,578.84,0,525,0H191.67ZM599.29,187.08c10.92-8.44,12.94-24.14,4.49-35.07-8.44-10.93-24.14-12.94-35.07-4.5l-184.9,142.87c-15,11.6-35.95,11.6-50.95,0l-184.9-142.87c-10.93-8.44-26.63-6.43-35.07,4.5-8.44,10.93-6.43,26.63,4.5,35.07l184.9,142.88c33.01,25.51,79.08,25.51,112.1,0l184.9-142.88Z"/>
        </g>
      </g>
    </g>
  </g>
</svg>