<?xml version="1.0" encoding="UTF-8"?>
<svg id="Layer_2" data-name="Layer 2" xmlns="http://www.w3.org/2000/svg" xmlns:xlink="http://www.w3.org/1999/xlink" viewBox="0 0 135.29 56.9">
  <defs>
    <style>
      .cls-1 {
        fill: none;
      }

      .cls-2 {
        fill: #315c77;
      }

      .cls-3 {
        clip-path: url(#clippath);
      }
    </style>
    <clipPath id="clippath">
      <rect class="cls-1" width="73" height="41"/>
    </clipPath>
  </defs>
  <g id="Layer_1-2" data-name="Layer 1">
    <path class="cls-2" d="M83.07,10.48c.46,0,.88-.02,1.27-.06.39-.04.72-.08,1.01-.13.34-.05.64-.12.92-.19l-.17.95s-.12,0-.21-.01c-.09,0-.2,0-.32-.01-.11,0-.23,0-.36-.01-.12,0-.24,0-.36,0-.11,0-.21,0-.3,0h-2.72v-.02c.02-.08.04-.18.06-.3.02-.12.04-.27.06-.45.02-.18.03-.39.04-.64,0-.25.01-.54.01-.87v-3.81c0-.33,0-.62-.01-.87,0-.25-.02-.46-.04-.64-.02-.18-.04-.34-.06-.46-.02-.12-.04-.22-.06-.3v-.02h1.41v.02c-.02.08-.05.18-.07.3-.02.12-.04.27-.05.46-.01.18-.02.39-.04.64,0,.25-.01.54-.01.87v5.59ZM91.19,2.46c.65,0,1.25.11,1.8.32.55.21,1.03.51,1.44.9.4.38.72.84.94,1.38.23.54.34,1.13.34,1.79,0,.37-.04.74-.13,1.1-.09.36-.21.7-.38,1.02-.16.32-.37.62-.61.89-.24.27-.52.5-.83.7-.31.2-.65.35-1.03.46-.38.11-.78.17-1.21.17-.65,0-1.26-.1-1.81-.31-.55-.21-1.03-.51-1.43-.89-.4-.38-.72-.84-.94-1.38-.23-.54-.34-1.14-.34-1.79,0-.37.04-.74.13-1.1.09-.36.21-.7.38-1.03.17-.32.37-.62.61-.89.24-.27.52-.51.83-.71.31-.2.66-.35,1.03-.46.38-.11.79-.17,1.22-.17ZM91.52,10.65c.43,0,.83-.08,1.19-.23.36-.16.67-.38.93-.68.26-.3.46-.66.61-1.08.14-.43.22-.92.22-1.46,0-.6-.07-1.16-.21-1.67-.14-.52-.34-.96-.62-1.34-.27-.38-.62-.67-1.03-.88-.41-.21-.88-.32-1.42-.32-.43,0-.83.08-1.19.23-.36.15-.67.38-.93.67-.26.29-.46.65-.6,1.08-.14.43-.22.91-.22,1.45,0,.6.07,1.16.21,1.68.14.52.34.96.62,1.34.27.38.62.68,1.03.9.41.21.89.32,1.43.32ZM97.37,2.6l6.03,6.42v-4.12c0-.33,0-.62-.01-.87,0-.25-.02-.46-.04-.64-.02-.18-.04-.34-.06-.46-.02-.12-.04-.22-.06-.3v-.02h1.04v.02c-.02.08-.04.18-.06.3-.02.12-.04.27-.05.46-.01.18-.03.39-.03.64,0,.25-.01.54-.01.87v6.22h-.21l-6.03-6.42v4.01c0,.33,0,.62.01.87,0,.25.02.46.04.64s.03.33.05.45c.02.12.04.22.06.3v.02h-1.04v-.02c.02-.08.05-.18.06-.3.02-.12.04-.27.06-.45.02-.18.03-.39.04-.64,0-.25.01-.54.01-.87v-3.81c0-.33,0-.62-.01-.87,0-.25-.02-.46-.04-.64-.02-.18-.04-.34-.06-.46-.02-.12-.04-.22-.06-.3v-.02h.38ZM107.19,3.1c0,.44-.01.86-.02,1.27,0,.18,0,.36-.01.54,0,.18,0,.37,0,.54,0,.18,0,.35,0,.51v.43c0,.26,0,.58,0,.95s0,.75.01,1.14c0,.39.02.77.03,1.12.01.36.03.66.04.9.06,0,.13.02.22.03.09,0,.19.02.29.02.1,0,.2,0,.3.01s.18,0,.25,0c.27,0,.55-.02.84-.05.29-.04.57-.11.83-.21.27-.1.52-.24.76-.42.24-.18.44-.41.62-.69.18-.28.32-.62.42-1.01.1-.4.15-.87.15-1.41,0-.6-.07-1.13-.22-1.59-.14-.47-.36-.86-.64-1.18-.28-.32-.62-.56-1.04-.73-.41-.17-.88-.25-1.42-.25-.11,0-.22,0-.36.01-.13,0-.26,0-.4.02-.13,0-.25.01-.37.02-.11,0-.21.01-.28.02ZM105.91,2.57c.09,0,.17,0,.25.01.07,0,.13,0,.2.01h.17c.07,0,.2,0,.37-.01.18,0,.38-.02.6-.02s.45-.02.69-.02c.24,0,.47-.01.68-.01.57,0,1.11.07,1.62.21.51.14.96.37,1.35.69s.69.74.92,1.26c.23.52.34,1.16.34,1.92,0,.54-.06,1.03-.18,1.46-.12.43-.28.82-.5,1.15-.21.33-.47.62-.77.86-.3.23-.63.43-.99.58-.36.15-.74.26-1.15.33s-.83.11-1.27.11c-.16,0-.35,0-.57-.02-.22,0-.44-.02-.66-.03-.22-.01-.43-.02-.63-.04-.19,0-.35-.01-.46-.01v-.02c.02-.08.05-.18.07-.3.02-.12.04-.27.06-.45.02-.18.03-.39.04-.64,0-.25.01-.54.01-.87v-3.81c0-.33,0-.62-.01-.87,0-.25-.02-.47-.04-.65-.01-.18-.03-.34-.06-.46-.02-.12-.04-.23-.07-.31v-.02ZM118.31,2.46c.65,0,1.25.11,1.8.32.56.21,1.03.51,1.44.9.4.38.72.84.94,1.38.23.54.34,1.13.34,1.79,0,.37-.04.74-.13,1.1-.09.36-.21.7-.38,1.02-.16.32-.37.62-.61.89-.24.27-.52.5-.83.7-.31.2-.65.35-1.03.46-.38.11-.78.17-1.21.17-.65,0-1.26-.1-1.81-.31-.55-.21-1.03-.51-1.43-.89-.4-.38-.72-.84-.94-1.38-.23-.54-.34-1.14-.34-1.79,0-.37.04-.74.13-1.1.09-.36.21-.7.38-1.03.17-.32.37-.62.61-.89.24-.27.52-.51.83-.71.31-.2.66-.35,1.03-.46.38-.11.79-.17,1.22-.17ZM118.64,10.65c.43,0,.83-.08,1.19-.23.36-.16.67-.38.93-.68.26-.3.47-.66.61-1.08.15-.43.22-.92.22-1.46,0-.6-.07-1.16-.21-1.67-.14-.52-.34-.96-.62-1.34-.27-.38-.61-.67-1.03-.88-.41-.21-.88-.32-1.42-.32-.43,0-.83.08-1.19.23-.36.15-.67.38-.93.67-.26.29-.46.65-.6,1.08-.14.43-.22.91-.22,1.45,0,.6.07,1.16.21,1.68.14.52.34.96.62,1.34.27.38.62.68,1.03.9.41.21.89.32,1.43.32ZM124.48,2.6l6.04,6.42v-4.12c0-.33,0-.62-.01-.87,0-.25-.02-.46-.04-.64-.02-.18-.03-.34-.06-.46-.02-.12-.04-.22-.06-.3v-.02h1.04v.02c-.02.08-.05.18-.07.3-.02.12-.04.27-.05.46-.01.18-.03.39-.03.64,0,.25-.01.54-.01.87v6.22h-.21l-6.03-6.42v4.01c0,.33,0,.62.01.87,0,.25.02.46.03.64.02.18.03.33.05.45.02.12.04.22.06.3v.02h-1.04v-.02c.02-.08.04-.18.06-.3.02-.12.04-.27.06-.45.02-.18.03-.39.04-.64,0-.25.01-.54.01-.87v-3.81c0-.33,0-.62-.01-.87,0-.25-.02-.46-.04-.64-.02-.18-.04-.34-.06-.46-.02-.12-.04-.22-.06-.3v-.02h.38ZM87.65,26v-.02s.01-.05.02-.09c0-.04,0-.07,0-.11,0-.12-.02-.25-.05-.4-.03-.15-.09-.33-.19-.55l-.71-1.59c-.22,0-.51-.01-.87-.01h-2.07c-.29,0-.54,0-.77.01l-.67,1.55c-.06.14-.12.3-.19.47s-.1.35-.1.52c0,.05,0,.09.01.13,0,.03.02.05.02.06v.02h-1.2v-.02c.07-.07.16-.21.26-.39.11-.19.22-.43.35-.71l3.36-7.45h.47l3.18,7.16c.07.17.15.33.23.49.08.16.16.3.23.42s.13.23.19.32.09.14.11.16v.02h-1.61ZM83.85,22.72h.7c.24,0,.47,0,.7,0,.23,0,.45,0,.66,0,.21,0,.4,0,.57-.01l-1.65-3.72-1.62,3.74h.63ZM89.91,17.6v.02s-.01.05-.02.09c0,.04,0,.07,0,.11,0,.12.02.26.05.4.04.14.1.33.19.54l2.6,5.85,2.51-5.81c.06-.14.12-.3.19-.47.07-.17.1-.35.1-.52,0-.05,0-.09-.01-.12,0-.04-.02-.06-.02-.08v-.02h1.2v.02c-.07.07-.16.21-.27.4-.11.19-.22.43-.35.71l-3.36,7.45h-.47l-3.18-7.17c-.07-.17-.15-.33-.23-.49-.08-.16-.15-.3-.22-.42-.07-.13-.13-.24-.19-.32-.05-.09-.09-.14-.11-.16v-.02h1.61ZM97.34,25.98c.02-.08.04-.18.06-.3s.04-.27.05-.45c.02-.18.03-.39.04-.64,0-.25.01-.54.01-.87v-3.81c0-.33,0-.62-.01-.87,0-.25-.02-.46-.04-.64-.02-.18-.03-.34-.05-.46s-.04-.22-.06-.3v-.02h1.4v.02c-.02.08-.05.18-.07.3-.02.12-.04.27-.05.46-.01.18-.02.39-.04.64,0,.25-.01.54-.01.87v3.81c0,.33,0,.62.01.87.01.25.02.46.04.64.02.18.03.33.05.45.02.12.05.22.07.3v.02h-1.4v-.02ZM106.28,26v-.02s.01-.05.02-.09c0-.04,0-.07,0-.11,0-.12-.02-.25-.05-.4-.03-.15-.09-.33-.19-.55l-.71-1.59c-.22,0-.51-.01-.87-.01h-2.07c-.29,0-.54,0-.77.01l-.67,1.55c-.06.14-.12.3-.19.47-.07.17-.1.35-.1.52,0,.05,0,.09.01.13,0,.03.01.05.02.06v.02h-1.2v-.02c.07-.07.16-.21.26-.39.11-.19.22-.43.35-.71l3.36-7.45h.47l3.18,7.16c.07.17.15.33.23.49.08.16.16.3.23.42.07.12.13.23.19.32.06.09.09.14.11.16v.02h-1.61ZM102.49,22.72h.7c.24,0,.47,0,.7,0,.23,0,.45,0,.66,0,.21,0,.4,0,.57-.01l-1.65-3.72-1.62,3.74h.63ZM110.23,18.11c-.46,0-.88.02-1.25.06-.37.04-.69.08-.96.13-.31.06-.59.12-.84.19l.17-.95s.12,0,.21.01c.09,0,.2,0,.31.01.12,0,.24,0,.36.01.13,0,.25,0,.36,0,.11,0,.21,0,.3,0h3.73c.09,0,.19,0,.31,0,.11,0,.23,0,.36,0,.13,0,.25,0,.36-.01.12,0,.22,0,.32-.01.09,0,.16,0,.21-.01l.17.95c-.25-.07-.53-.13-.84-.19-.27-.05-.59-.09-.96-.13-.37-.04-.79-.06-1.25-.06v5.6c0,.33,0,.62.01.87.01.25.02.46.03.64.02.18.03.33.05.45.02.12.05.22.07.3v.02h-1.4v-.02c.02-.08.05-.18.07-.3.02-.12.04-.27.05-.45.01-.18.03-.39.03-.64,0-.25.01-.54.01-.87v-5.6ZM115.24,25.98c.02-.08.05-.18.07-.3.02-.12.04-.27.05-.45.02-.18.03-.39.04-.64,0-.25.01-.54.01-.87v-3.81c0-.33,0-.62-.01-.87,0-.25-.02-.46-.04-.64-.01-.18-.03-.34-.05-.46-.02-.12-.04-.22-.07-.3v-.02h1.4v.02c-.02.08-.05.18-.07.3-.02.12-.04.27-.05.46-.01.18-.02.39-.04.64,0,.25-.01.54-.01.87v3.81c0,.33,0,.62.01.87.01.25.02.46.04.64.02.18.03.33.05.45.02.12.05.22.07.3v.02h-1.4v-.02ZM122.21,17.46c.65,0,1.25.11,1.81.32.55.21,1.03.51,1.43.9.4.38.72.84.94,1.38.23.54.34,1.13.34,1.79,0,.37-.04.74-.13,1.1-.09.36-.21.7-.38,1.02-.16.32-.37.62-.61.89-.24.27-.52.5-.83.7-.31.2-.65.35-1.03.46-.38.11-.78.17-1.21.17-.65,0-1.26-.1-1.81-.31-.55-.21-1.03-.51-1.43-.89-.4-.38-.72-.84-.94-1.38-.23-.54-.34-1.14-.34-1.79,0-.37.04-.74.13-1.1.09-.36.21-.7.38-1.03.17-.32.37-.62.61-.89.24-.27.52-.51.83-.71.31-.2.66-.35,1.03-.46.38-.11.79-.17,1.22-.17ZM122.54,25.65c.43,0,.83-.08,1.19-.23.36-.16.67-.38.93-.68.26-.3.47-.66.61-1.08.14-.43.22-.92.22-1.46,0-.6-.07-1.16-.21-1.67-.14-.52-.34-.96-.62-1.34-.27-.38-.61-.67-1.02-.88-.41-.21-.88-.32-1.42-.32-.43,0-.83.08-1.19.23-.36.15-.67.38-.93.67-.26.29-.46.65-.6,1.08-.14.43-.22.91-.22,1.45,0,.6.07,1.16.21,1.68.14.52.34.96.61,1.34.27.38.62.68,1.03.9.41.21.89.32,1.43.32ZM128.38,17.6l6.04,6.42v-4.12c0-.33,0-.62-.01-.87,0-.25-.02-.46-.04-.64-.02-.18-.04-.34-.06-.46-.02-.12-.04-.22-.06-.3v-.02h1.04v.02c-.02.08-.04.18-.06.3-.02.12-.04.27-.05.46-.02.18-.03.39-.03.64,0,.25-.01.54-.01.87v6.22h-.21l-6.03-6.42v4.01c0,.33,0,.62.01.87,0,.25.02.46.04.64.01.18.03.33.05.45.02.12.04.22.06.3v.02h-1.04v-.02c.02-.08.04-.18.06-.3.02-.12.04-.27.06-.45.01-.18.03-.39.04-.64,0-.25.01-.54.01-.87v-3.81c0-.33,0-.62-.01-.87,0-.25-.02-.46-.04-.64-.02-.18-.03-.34-.06-.46-.02-.12-.04-.22-.06-.3v-.02h.38ZM81.42,40.98c.04-.06.09-.15.15-.28.05-.12.1-.28.13-.47.04-.27.09-.58.14-.92.05-.34.11-.7.16-1.08.06-.38.12-.76.17-1.15.06-.39.11-.78.16-1.16.05-.38.11-.75.15-1.1.05-.36.1-.68.13-.97.04-.29.07-.55.09-.76.03-.22.05-.38.06-.49h.74l3.69,6.89,3.66-6.89h.56l.96,6.96c.03.22.06.41.09.56.03.16.06.29.09.4.03.11.06.2.09.28.03.07.06.13.09.18v.02h-1.48v-.02s.04-.11.05-.21c.02-.1.03-.21.03-.35,0-.05,0-.1,0-.15,0-.05,0-.11-.02-.18l-.74-5.61-3.46,6.5-.4-.05-3.48-6.52c-.14.93-.26,1.78-.36,2.57-.04.34-.09.67-.13,1.01-.04.33-.08.64-.12.93-.03.29-.06.54-.08.77-.02.22-.03.38-.03.49,0,.13,0,.25.01.35,0,.1.02.19.02.26.01.08.02.15.04.22h-1.17v-.02ZM100.07,34.89c0-.33,0-.62-.01-.87,0-.25-.02-.46-.04-.64-.01-.18-.03-.34-.05-.46-.02-.12-.04-.22-.06-.3v-.02h1.04v.02c-.02.08-.05.18-.07.3-.02.12-.04.27-.05.46-.01.18-.02.39-.04.64,0,.25-.01.54-.01.87v3.16c0,.56-.08,1.04-.24,1.43-.16.39-.38.72-.67.97-.29.25-.63.43-1.03.55-.4.12-.83.18-1.31.18s-.91-.05-1.32-.16c-.41-.11-.76-.29-1.07-.53-.3-.25-.54-.56-.71-.95-.17-.39-.26-.87-.26-1.42v-3.22c0-.33,0-.62-.01-.87,0-.25-.02-.46-.04-.64-.02-.18-.04-.34-.06-.46-.02-.12-.04-.22-.06-.3v-.02h1.41v.02c-.02.08-.05.18-.07.3-.02.12-.04.27-.05.46-.02.18-.03.39-.04.64,0,.25-.01.54-.01.87v3.29c0,.46.07.85.21,1.15.14.3.32.54.55.72.23.18.48.3.77.37s.58.11.88.11.6-.04.88-.11c.29-.07.55-.19.77-.37.23-.18.41-.42.54-.72.14-.3.21-.69.21-1.15v-3.29ZM106.08,33.93h-.13c-.03-.09-.08-.19-.15-.3-.07-.11-.16-.22-.27-.32-.11-.1-.24-.19-.4-.25-.16-.07-.34-.1-.56-.1-.19,0-.36.03-.51.09-.15.06-.27.14-.37.25-.1.11-.17.23-.22.38-.05.14-.08.3-.08.48,0,.28.08.55.23.81.16.25.36.51.6.76.24.25.5.5.77.75s.53.51.77.78c.24.27.44.55.59.85.16.29.24.61.24.95,0,.25-.04.51-.14.77-.09.25-.22.48-.4.69-.18.2-.42.37-.71.5-.29.12-.63.19-1.03.19-.22,0-.43-.02-.64-.06-.2-.04-.39-.09-.56-.15-.17-.06-.32-.13-.46-.2-.13-.07-.24-.13-.33-.19l.14-1.29h.15c.04.18.11.36.21.53.1.16.22.31.36.44.14.12.31.23.49.3.18.07.38.11.6.11.2,0,.38-.03.53-.09.16-.06.3-.15.41-.25.11-.11.2-.24.26-.39.06-.15.09-.31.09-.49,0-.25-.04-.47-.14-.68-.09-.21-.21-.41-.36-.6-.14-.19-.31-.37-.5-.54-.18-.18-.37-.35-.57-.53-.2-.18-.39-.36-.57-.55-.18-.19-.35-.39-.5-.6-.14-.21-.26-.44-.35-.69-.09-.25-.14-.52-.14-.81,0-.31.06-.59.18-.83.12-.25.28-.46.47-.64.2-.18.42-.31.67-.4.25-.09.51-.14.77-.14.19,0,.38.02.54.05.16.03.31.07.44.11.13.04.25.09.35.13.1.04.18.08.24.11l-.04,1.1ZM108.04,32.6c.49,0,.97,0,1.45,0,.48,0,.93,0,1.33-.01.4,0,.75-.02,1.03-.03.29-.01.48-.03.58-.05l-.29.78c-.13-.04-.28-.07-.45-.09-.15-.02-.33-.04-.54-.06-.21-.02-.46-.04-.73-.04-.09,0-.21,0-.34.01-.13,0-.25,0-.38.02-.14,0-.28.02-.43.02v3.2c.4,0,.77-.02,1.09-.04.32-.02.6-.04.83-.06.27-.02.5-.05.7-.08l-.18.85c-.27-.04-.54-.07-.83-.1-.24-.03-.51-.05-.79-.07-.29-.02-.56-.04-.82-.04v3.67c.46,0,.89-.02,1.27-.06.39-.04.72-.08,1.01-.13.34-.05.64-.12.92-.19l-.17.95s-.12,0-.21-.01c-.09,0-.2,0-.32-.01-.11,0-.23,0-.36-.01-.12,0-.24,0-.36,0-.11,0-.21,0-.3,0h-2.72v-.02c.02-.08.04-.18.06-.3.02-.12.04-.27.06-.45s.03-.39.03-.64c0-.25.01-.54.01-.87v-3.81c0-.33,0-.62-.01-.87,0-.25-.02-.46-.03-.64-.02-.18-.04-.34-.06-.46-.02-.12-.04-.22-.06-.3v-.02ZM119.94,34.89c0-.33,0-.62-.01-.87,0-.25-.02-.46-.04-.64-.02-.18-.03-.34-.05-.46-.02-.12-.04-.22-.06-.3v-.02h1.04v.02c-.02.08-.05.18-.07.3-.02.12-.04.27-.05.46-.01.18-.02.39-.04.64,0,.25-.01.54-.01.87v3.16c0,.56-.08,1.04-.24,1.43-.16.39-.38.72-.67.97-.29.25-.63.43-1.03.55-.4.12-.83.18-1.31.18s-.91-.05-1.32-.16c-.41-.11-.76-.29-1.07-.53-.3-.25-.54-.56-.71-.95-.17-.39-.26-.87-.26-1.42v-3.22c0-.33,0-.62-.01-.87,0-.25-.02-.46-.04-.64-.02-.18-.04-.34-.06-.46-.02-.12-.04-.22-.06-.3v-.02h1.41v.02c-.02.08-.05.18-.07.3-.02.12-.04.27-.05.46-.02.18-.03.39-.04.64,0,.25-.01.54-.01.87v3.29c0,.46.07.85.21,1.15.14.3.32.54.55.72.23.18.48.3.77.37s.58.11.88.11.6-.04.89-.11c.29-.07.54-.19.77-.37.23-.18.41-.42.54-.72.14-.3.21-.69.21-1.15v-3.29ZM122.03,40.98c.04-.06.09-.15.15-.28.05-.12.1-.28.13-.47.04-.27.09-.58.14-.92.06-.34.11-.7.16-1.08.06-.38.12-.76.17-1.15.06-.39.11-.78.16-1.16.06-.38.11-.75.15-1.1.05-.36.1-.68.13-.97.04-.29.07-.55.09-.76.03-.22.05-.38.06-.49h.74l3.69,6.89,3.66-6.89h.56l.96,6.96c.03.22.06.41.09.56.03.16.06.29.09.4.03.11.06.2.09.28.03.07.06.13.09.18v.02h-1.48v-.02s.04-.11.05-.21c.02-.1.03-.21.03-.35,0-.05,0-.1,0-.15,0-.05,0-.11-.02-.18l-.74-5.61-3.46,6.5-.4-.05-3.48-6.52c-.14.93-.26,1.78-.36,2.57-.04.34-.09.67-.13,1.01-.04.33-.08.64-.12.93-.03.29-.06.54-.08.77-.02.22-.03.38-.03.49,0,.13,0,.25.01.35,0,.1.01.19.02.26.01.08.02.15.03.22h-1.17v-.02Z"/>
    <path class="cls-2" d="M8.79,55.7l1.92-4.2h.44l1.92,4.2h-.47l-1.76-3.94h.18l-1.76,3.94h-.46ZM9.54,54.58l.13-.36h2.44l.13.36h-2.71ZM16.87,55.73c-.27,0-.52-.06-.74-.19-.22-.13-.4-.31-.53-.55-.13-.24-.19-.53-.19-.88s.06-.63.19-.87c.13-.24.3-.42.52-.55.22-.12.47-.19.74-.19.3,0,.57.07.8.2.24.13.43.32.56.56.14.24.2.52.2.83s-.07.6-.2.84c-.14.24-.32.43-.56.56-.24.14-.5.2-.8.2ZM15.24,56.87v-4.31h.41v.95l-.04.63.06.64v2.1h-.43ZM16.84,55.36c.22,0,.42-.05.6-.15.18-.1.32-.25.42-.43.1-.19.16-.4.16-.65s-.05-.46-.16-.64c-.1-.18-.24-.33-.42-.43-.18-.1-.38-.16-.6-.16s-.43.05-.61.16c-.18.1-.32.25-.42.43-.1.18-.15.4-.15.64s.05.46.15.65c.1.18.24.33.42.43.18.1.38.15.61.15ZM19.31,55.7v-3.15h.41v.86l-.04-.15c.09-.24.24-.42.44-.55.21-.13.47-.19.77-.19v.41h-.05s-.03,0-.05,0c-.33,0-.59.1-.78.31-.19.2-.28.49-.28.86v1.61h-.43ZM22.92,55.73c-.3,0-.58-.07-.82-.2-.24-.14-.43-.33-.57-.57-.14-.24-.21-.52-.21-.83s.07-.59.21-.83c.14-.24.33-.43.57-.56.24-.14.51-.2.82-.2s.59.07.83.2c.24.14.43.32.57.56.14.24.21.52.21.83s-.07.59-.21.83c-.14.24-.33.43-.57.57-.24.14-.52.2-.83.2ZM22.92,55.36c.23,0,.43-.05.61-.15.18-.1.31-.25.41-.43.1-.19.16-.4.16-.65s-.05-.46-.16-.65c-.1-.18-.24-.33-.41-.43-.18-.1-.38-.16-.6-.16s-.42.05-.6.16c-.18.1-.32.24-.42.43-.1.18-.16.4-.16.65s.05.46.16.65c.1.18.24.33.42.43.18.1.37.15.59.15ZM24.93,56.9c-.13,0-.25-.02-.37-.05-.12-.03-.22-.08-.3-.15l.15-.32c.13.11.29.16.49.16.17,0,.3-.05.38-.15.09-.1.14-.25.14-.44v-3.38h.43v3.38c0,.29-.08.52-.24.7-.16.18-.38.26-.68.26ZM25.65,51.86c-.09,0-.16-.03-.22-.09-.06-.06-.09-.13-.09-.22s.03-.15.09-.21c.06-.06.13-.09.22-.09s.16.03.22.08c.06.06.09.13.09.21s-.03.16-.09.22c-.06.06-.13.09-.22.09ZM28.38,55.73c-.33,0-.62-.07-.86-.2-.25-.14-.44-.33-.58-.57-.14-.24-.21-.52-.21-.83s.07-.59.2-.83c.14-.24.32-.43.55-.56.24-.14.5-.21.79-.21s.56.07.79.2c.23.13.41.32.55.56.13.24.2.52.2.83,0,.02,0,.04,0,.07v.07h-2.74v-.32h2.51l-.17.13c0-.23-.05-.43-.15-.61-.1-.18-.23-.32-.4-.42-.17-.1-.36-.15-.58-.15s-.41.05-.58.15c-.17.1-.31.24-.4.42-.1.18-.14.39-.14.62v.07c0,.24.05.45.16.64.11.18.26.32.44.43.19.1.41.15.65.15.19,0,.37-.03.53-.1.17-.07.31-.17.43-.31l.24.28c-.14.17-.32.3-.53.38-.21.09-.44.13-.69.13ZM31.98,55.73c-.31,0-.59-.07-.84-.2-.24-.14-.44-.33-.58-.57-.14-.24-.21-.52-.21-.83s.07-.59.21-.83c.14-.24.33-.43.58-.56.25-.14.53-.2.84-.2.27,0,.51.05.73.16s.39.26.51.47l-.32.22c-.11-.16-.24-.28-.4-.35s-.33-.11-.52-.11c-.22,0-.43.05-.61.16-.18.1-.32.24-.43.43-.1.18-.16.4-.16.65s.05.46.16.65c.1.18.25.33.43.43.18.1.38.15.61.15.19,0,.36-.04.52-.11.16-.08.29-.19.4-.35l.32.22c-.12.2-.29.36-.51.47-.22.1-.46.16-.73.16ZM35.08,55.73c-.3,0-.52-.08-.68-.24-.16-.16-.24-.39-.24-.68v-2.96h.43v2.93c0,.18.05.33.14.43.1.1.23.15.41.15.19,0,.34-.05.47-.16l.15.31c-.08.08-.19.13-.31.17-.12.04-.24.05-.36.05ZM33.59,52.91v-.35h1.95v.35h-1.95ZM39.38,55.73c-.3,0-.58-.07-.82-.2-.24-.14-.43-.33-.57-.57-.14-.24-.21-.52-.21-.83s.07-.59.21-.83c.14-.24.33-.43.57-.56.24-.14.51-.2.82-.2s.59.07.83.2c.24.14.43.32.57.56.14.24.21.52.21.83s-.07.59-.21.83c-.14.24-.33.43-.57.57-.24.14-.52.2-.83.2ZM39.38,55.36c.23,0,.43-.05.61-.15.18-.1.31-.25.41-.43.1-.19.16-.4.16-.65s-.05-.46-.16-.65c-.1-.18-.24-.33-.41-.43-.18-.1-.38-.16-.6-.16s-.42.05-.6.16c-.18.1-.32.24-.42.43-.1.18-.16.4-.16.65s.05.46.16.65c.1.18.24.33.42.43.18.1.37.15.59.15ZM41.92,55.7v-3.55c0-.28.08-.51.25-.68.16-.17.4-.26.71-.26.12,0,.24.02.35.05.11.03.21.08.28.15l-.14.32c-.06-.05-.13-.09-.21-.11-.08-.03-.17-.04-.26-.04-.18,0-.32.05-.41.15s-.14.25-.14.44v.68s.01,2.85.01,2.85h-.43ZM41.36,52.91v-.35h1.95v.35h-1.95ZM45.1,54.6v-.31l2.23-2.78h.48l-2.21,2.78-.23-.07h3.38v.38h-3.64ZM47.47,55.7v-1.49s.01-.97.01-.97h.42v2.46h-.43ZM49.05,55.7v-.31l1.75-1.71c.16-.16.28-.29.36-.41.08-.12.13-.23.16-.34s.04-.2.04-.29c0-.24-.08-.44-.25-.58-.16-.14-.41-.21-.73-.21-.25,0-.47.04-.66.11-.19.08-.35.19-.49.35l-.31-.26c.16-.19.37-.34.63-.44.26-.1.54-.16.86-.16.28,0,.53.05.74.14.21.09.37.22.48.39.12.17.17.37.17.61,0,.14-.02.27-.06.4-.04.13-.1.27-.2.42-.1.14-.24.31-.43.49l-1.6,1.57-.12-.17h2.6v.38h-2.95ZM53.27,55.7l1.81-4.01.13.19h-2.6l.22-.21v1h-.43v-1.17h3.08v.31l-1.76,3.89h-.47ZM58.96,55.7l-1.42-4.2h.46l1.33,3.95h-.23l1.37-3.95h.41l1.35,3.95h-.22l1.34-3.95h.43l-1.42,4.2h-.47l-1.29-3.75h.12l-1.3,3.75h-.46ZM64.48,55.7v-3.15h.43v3.15h-.43ZM64.69,51.86c-.09,0-.16-.03-.22-.09-.06-.06-.09-.13-.09-.22s.03-.15.09-.21c.06-.06.13-.09.22-.09s.16.03.22.08c.06.06.09.13.09.21s-.03.16-.09.22c-.06.06-.13.09-.22.09ZM67.7,52.52c.26,0,.48.05.67.15.2.1.35.24.46.44.11.2.17.45.17.76v1.83h-.43v-1.79c0-.33-.08-.58-.25-.75-.16-.17-.4-.26-.7-.26-.22,0-.42.05-.59.14-.16.09-.29.22-.38.39-.09.17-.13.37-.13.61v1.66h-.43v-3.15h.41v.86l-.07-.16c.1-.23.26-.41.48-.53.22-.13.48-.2.79-.2ZM71.49,56.9c-.29,0-.56-.04-.83-.13s-.48-.2-.64-.36l.22-.32c.15.13.33.24.55.31.22.08.45.12.7.12.4,0,.69-.09.88-.28.19-.18.28-.47.28-.86v-.79l.06-.54-.04-.54v-.95h.41v2.77c0,.54-.13.94-.4,1.19-.26.26-.66.38-1.18.38ZM71.41,55.58c-.3,0-.57-.06-.81-.19-.24-.13-.43-.31-.57-.55-.14-.23-.2-.5-.2-.8s.07-.56.2-.79c.14-.23.33-.41.57-.54.24-.13.51-.19.81-.19.28,0,.53.06.76.17s.4.29.53.52c.13.23.2.51.2.83s-.07.61-.2.83c-.13.23-.31.4-.53.52s-.48.18-.76.18ZM71.45,55.21c.23,0,.44-.05.62-.14.18-.1.32-.24.43-.41.1-.18.16-.38.16-.61s-.05-.43-.16-.6c-.1-.17-.25-.31-.43-.4-.18-.1-.39-.15-.62-.15s-.43.05-.62.15c-.18.1-.32.23-.43.4-.1.17-.15.37-.15.6s.05.43.15.61c.1.17.25.31.43.41.18.1.39.14.62.14ZM73.99,56.58l.26-1.11.05.26c-.09,0-.17-.03-.23-.09-.06-.06-.09-.14-.09-.23s.03-.17.09-.23c.06-.06.14-.09.23-.09s.17.03.22.1c.06.06.09.14.09.23,0,.03,0,.06,0,.1,0,.03-.01.07-.02.11s-.03.09-.05.14l-.25.83h-.29ZM77.18,55.7v-4.2h1.57c.36,0,.66.06.92.17.26.11.45.28.59.49.14.21.21.47.21.77s-.07.55-.21.77c-.14.21-.33.38-.59.49-.26.11-.56.17-.92.17h-1.33l.2-.2v1.54h-.44ZM80.05,55.7l-1.08-1.52h.48l1.09,1.52h-.49ZM77.63,54.2l-.2-.21h1.31c.42,0,.74-.09.95-.28.22-.18.33-.44.33-.77s-.11-.6-.33-.78c-.22-.18-.53-.28-.95-.28h-1.31l.2-.21v2.53ZM83.34,55.74c-.32,0-.61-.05-.88-.16-.27-.11-.5-.26-.7-.45s-.35-.42-.46-.68c-.11-.26-.16-.54-.16-.85s.05-.59.16-.85c.11-.26.27-.49.46-.68.2-.19.43-.34.7-.44.27-.11.56-.16.88-.16s.59.05.86.16c.27.1.49.25.68.46l-.28.28c-.17-.18-.36-.3-.57-.38-.21-.08-.43-.12-.67-.12-.25,0-.49.04-.7.13-.22.08-.4.21-.56.37-.16.16-.29.34-.38.55-.09.21-.13.44-.13.69s.04.48.13.7c.09.21.22.39.38.55.16.16.35.28.56.37.22.08.45.13.7.13s.46-.04.67-.12c.21-.08.4-.21.57-.38l.28.28c-.18.2-.41.36-.68.46-.27.1-.56.16-.86.16ZM85.05,55.7l1.92-4.2h.44l1.92,4.2h-.47l-1.76-3.94h.18l-1.76,3.94h-.46ZM85.81,54.58l.13-.36h2.44l.13.36h-2.71ZM90.42,53.54h2.22v.38h-2.22v-.38ZM90.47,55.7h-.44v-4.2h2.88v.38h-2.44v3.82ZM94.72,55.7l1.92-4.2h.44l1.92,4.2h-.47l-1.76-3.94h.18l-1.76,3.94h-.46ZM95.48,54.58l.13-.36h2.44l.13.36h-2.71ZM100.42,55.73c-.26,0-.51-.04-.74-.11-.23-.08-.41-.17-.55-.28l.19-.34c.13.1.29.18.49.25.2.07.41.1.63.1.3,0,.52-.05.65-.14.13-.1.2-.22.2-.38,0-.12-.04-.21-.11-.27-.07-.07-.17-.12-.29-.15-.12-.04-.25-.07-.4-.09-.15-.02-.3-.05-.44-.08-.14-.03-.28-.08-.4-.14-.12-.06-.22-.15-.29-.26-.07-.11-.11-.25-.11-.43s.05-.33.14-.46c.1-.14.24-.24.42-.32.19-.08.42-.12.68-.12.2,0,.41.03.61.08.2.05.37.12.5.21l-.19.34c-.14-.1-.29-.16-.45-.2-.16-.04-.32-.07-.48-.07-.28,0-.49.05-.63.15-.13.1-.2.22-.2.37,0,.12.04.21.11.28.08.07.17.12.29.16.12.04.26.07.4.09.15.02.29.05.44.09.15.03.28.08.4.14.12.06.22.14.29.25.08.1.11.24.11.41,0,.18-.05.34-.16.48-.1.13-.25.24-.44.31-.19.07-.43.11-.7.11ZM103.35,55.73c-.26,0-.51-.04-.74-.11-.23-.08-.41-.17-.55-.28l.19-.34c.13.1.29.18.49.25.2.07.41.1.63.1.3,0,.52-.05.65-.14.13-.1.2-.22.2-.38,0-.12-.04-.21-.11-.27-.07-.07-.17-.12-.29-.15-.12-.04-.25-.07-.4-.09-.15-.02-.3-.05-.44-.08-.14-.03-.28-.08-.4-.14-.12-.06-.22-.15-.29-.26-.07-.11-.11-.25-.11-.43s.05-.33.14-.46c.1-.14.24-.24.42-.32.19-.08.42-.12.68-.12.2,0,.41.03.61.08.2.05.37.12.5.21l-.19.34c-.14-.1-.29-.16-.45-.2-.16-.04-.32-.07-.48-.07-.28,0-.49.05-.63.15-.13.1-.2.22-.2.37,0,.12.04.21.11.28.08.07.17.12.29.16.12.04.26.07.4.09.15.02.29.05.44.09.15.03.28.08.4.14.12.06.22.14.29.25.08.1.11.24.11.41,0,.18-.05.34-.16.48-.1.13-.25.24-.44.31-.19.07-.43.11-.7.11ZM106.72,55.73c-.3,0-.58-.07-.82-.2-.24-.14-.43-.33-.57-.57-.14-.24-.21-.52-.21-.83s.07-.59.21-.83c.14-.24.33-.43.57-.56.24-.14.51-.2.82-.2s.59.07.83.2c.24.14.43.32.57.56.14.24.21.52.21.83s-.07.59-.21.83c-.14.24-.33.43-.57.57-.24.14-.52.2-.83.2ZM106.72,55.36c.23,0,.43-.05.61-.15.18-.1.31-.25.41-.43.1-.19.16-.4.16-.65s-.05-.46-.16-.65c-.1-.18-.24-.33-.41-.43-.18-.1-.38-.16-.6-.16s-.42.05-.6.16c-.18.1-.32.24-.42.43-.1.18-.16.4-.16.65s.05.46.16.65c.1.18.24.33.42.43.18.1.37.15.59.15ZM110.5,55.73c-.31,0-.59-.07-.84-.2-.24-.14-.44-.33-.58-.57-.14-.24-.21-.52-.21-.83s.07-.59.21-.83c.14-.24.33-.43.58-.56.25-.14.53-.2.84-.2.27,0,.51.05.73.16.22.1.39.26.51.47l-.32.22c-.11-.16-.24-.28-.4-.35-.16-.08-.33-.11-.52-.11-.22,0-.43.05-.61.16-.18.1-.32.24-.43.43-.1.18-.16.4-.16.65s.05.46.16.65c.1.18.25.33.43.43.18.1.38.15.61.15.19,0,.36-.04.52-.11.16-.08.29-.19.4-.35l.32.22c-.12.2-.29.36-.51.47-.22.1-.46.16-.73.16ZM112.53,55.7v-3.15h.43v3.15h-.43ZM112.75,51.86c-.09,0-.16-.03-.22-.09-.06-.06-.09-.13-.09-.22s.03-.15.09-.21c.06-.06.13-.09.22-.09s.16.03.22.08c.06.06.09.13.09.21s-.03.16-.09.22c-.06.06-.13.09-.22.09ZM116.11,55.7v-.7l-.02-.11v-1.16c0-.27-.08-.47-.23-.62-.15-.14-.37-.22-.67-.22-.2,0-.4.03-.58.1-.18.07-.34.16-.47.27l-.19-.32c.16-.14.35-.24.58-.31.22-.08.46-.11.71-.11.41,0,.72.1.94.31.22.2.34.51.34.92v1.96h-.41ZM115.03,55.73c-.24,0-.44-.04-.62-.11-.17-.08-.3-.19-.4-.32-.09-.14-.14-.3-.14-.48,0-.16.04-.31.11-.44.08-.14.21-.24.38-.32.18-.08.42-.13.72-.13h1.09v.32h-1.07c-.3,0-.52.05-.64.16-.12.11-.17.24-.17.4,0,.18.07.32.21.43.14.11.34.16.59.16s.45-.05.62-.16c.18-.11.3-.27.38-.48l.1.29c-.08.21-.22.37-.42.5-.2.12-.44.19-.74.19ZM118.68,55.73c-.3,0-.52-.08-.68-.24-.16-.16-.24-.39-.24-.68v-2.96h.43v2.93c0,.18.05.33.14.43.1.1.23.15.41.15.19,0,.34-.05.47-.16l.15.31c-.08.08-.19.13-.31.17-.12.04-.24.05-.36.05ZM117.19,52.91v-.35h1.95v.35h-1.95ZM120.12,55.7v-3.15h.43v3.15h-.43ZM120.33,51.86c-.09,0-.16-.03-.22-.09-.06-.06-.09-.13-.09-.22s.03-.15.09-.21c.06-.06.13-.09.22-.09s.16.03.22.08.09.13.09.21-.03.16-.09.22c-.06.06-.13.09-.22.09ZM123.01,55.73c-.3,0-.58-.07-.82-.2-.24-.14-.43-.33-.57-.57-.14-.24-.21-.52-.21-.83s.07-.59.21-.83c.14-.24.33-.43.57-.56.24-.14.51-.2.82-.2s.59.07.83.2c.24.14.43.32.57.56.14.24.21.52.21.83s-.07.59-.21.83c-.14.24-.33.43-.57.57-.24.14-.52.2-.83.2ZM123.01,55.36c.23,0,.43-.05.61-.15.18-.1.31-.25.41-.43.1-.19.16-.4.16-.65s-.05-.46-.16-.65c-.1-.18-.24-.33-.41-.43-.18-.1-.38-.16-.6-.16s-.42.05-.6.16c-.18.1-.32.24-.42.43-.1.18-.16.4-.16.65s.05.46.16.65c.1.18.24.33.42.43.18.1.37.15.59.15ZM127.1,52.52c.26,0,.48.05.67.15.2.1.35.24.46.44.11.2.17.45.17.76v1.83h-.43v-1.79c0-.33-.08-.58-.25-.75-.16-.17-.4-.26-.7-.26-.22,0-.42.05-.59.14-.16.09-.29.22-.38.39-.09.17-.13.37-.13.61v1.66h-.43v-3.15h.41v.86l-.07-.16c.1-.23.26-.41.48-.53.22-.13.48-.2.79-.2Z"/>
    <g class="cls-3">
      <g>
        <path class="cls-2" d="M25.3,7.78c1.3-1.59,2.87-2.8,4.73-3.63,1.86-.86,3.94-1.3,6.26-1.3s4.4.43,6.26,1.3c1.86.83,3.44,2.04,4.73,3.63,1.17,1.4,2.09,3.08,2.77,5.04h6.52c-.03-.07-.06-.15-.09-.22-1.12-2.53-2.67-4.72-4.63-6.59-1.96-1.87-4.28-3.34-6.94-4.41-2.66-1.07-5.54-1.61-8.62-1.61s-5.96.54-8.62,1.61c-2.66,1.07-4.98,2.54-6.94,4.41-1.96,1.87-3.51,4.06-4.63,6.59-.03.07-.06.15-.09.22h6.52c.68-1.96,1.61-3.64,2.77-5.04h0Z"/>
        <path class="cls-2" d="M47.25,33.53c-1.3,1.49-2.87,2.63-4.73,3.42-1.82.79-3.89,1.19-6.21,1.19s-4.4-.4-6.26-1.19c-1.86-.8-3.44-1.94-4.73-3.42-1.18-1.35-2.1-2.97-2.78-4.84h-6.42s0,0,0,0c1.16,2.46,2.72,4.6,4.68,6.44,1.96,1.8,4.28,3.23,6.94,4.31,2.66,1.04,5.52,1.56,8.57,1.56s5.91-.52,8.57-1.56c2.66-1.07,4.98-2.51,6.94-4.31,1.96-1.83,3.51-3.98,4.63-6.44,0,0,0,0,0,0h-6.37c-.69,1.86-1.62,3.49-2.84,4.84h0Z"/>
        <path class="cls-2" d="M29.59,18.86c-5.02-.37-17.44-2.14-20.04-2.23-2.63-.09-7.77-.9-9.25,1.27-.97,1.42.6,4.88,2.5,5.57,3.87,1.39,13.1.9,14.51.84,7.07-.33,10.27-1.23,12.25-1.76-.18-.67-.27-1.37-.24-2.1.03-.55.12-1.08.27-1.58h0Z"/>
        <path class="cls-2" d="M41.27,21.26c.12-2.71-2.01-5.01-4.76-5.13-2.75-.12-5.08,1.99-5.2,4.7-.12,2.71,2.01,5.01,4.76,5.13,2.75.12,5.08-1.99,5.2-4.7Z"/>
        <path class="cls-2" d="M43.41,22.61c5.02.37,17.44,2.14,20.04,2.23,2.63.09,7.77.9,9.25-1.27.97-1.42-.6-4.88-2.5-5.57-3.87-1.39-13.1-.9-14.51-.84-7.07.33-10.27,1.23-12.25,1.76.18.67.27,1.37.24,2.1-.03.55-.12,1.08-.27,1.58h0Z"/>
      </g>
    </g>
  </g>
</svg>