<?xml version="1.0" encoding="UTF-8"?>
<svg id="Layer_2" data-name="Layer 2" xmlns="http://www.w3.org/2000/svg" viewBox="0 0 800 800">
  <defs>
    <style>
      .cls-1 {
        fill: #fff;
      }
    </style>
  </defs>
  <g id="Layer_1-2" data-name="Layer 1">
    <path class="cls-1" d="M400,72.07c106.81,0,119.46.41,161.63,2.33,39,1.78,60.18,8.3,74.28,13.77,18.67,7.26,32,15.93,45.99,29.92s22.67,27.32,29.92,45.99c5.48,14.1,11.99,35.28,13.77,74.27,1.92,42.18,2.33,54.83,2.33,161.64s-.41,119.46-2.33,161.63c-1.78,39-8.3,60.18-13.77,74.28-7.25,18.67-15.92,32-29.92,45.99-14,14-27.32,22.67-45.99,29.92-14.1,5.48-35.28,11.99-74.28,13.77-42.17,1.92-54.82,2.33-161.63,2.33s-119.46-.41-161.63-2.33c-39-1.78-60.18-8.3-74.27-13.77-18.67-7.25-32-15.92-45.99-29.92-14-14-22.67-27.32-29.92-45.99-5.48-14.1-11.99-35.28-13.77-74.27-1.92-42.18-2.33-54.83-2.33-161.64s.41-119.46,2.33-161.63c1.78-39,8.3-60.18,13.77-74.28,7.25-18.67,15.92-32,29.92-45.99,14-14,27.32-22.67,45.99-29.92,14.09-5.48,35.27-11.99,74.27-13.77,42.18-1.92,54.83-2.33,161.64-2.33M400,0c-108.63,0-122.25.46-164.92,2.41-42.58,1.94-71.65,8.7-97.1,18.59-26.3,10.22-48.61,23.9-70.85,46.14-22.24,22.24-35.91,44.54-46.14,70.85-9.89,25.44-16.65,54.52-18.59,97.1-1.95,42.66-2.41,56.28-2.41,164.92s.46,122.26,2.41,164.92c1.94,42.58,8.7,71.65,18.59,97.1,10.22,26.3,23.9,48.61,46.14,70.85,22.24,22.24,44.54,35.91,70.85,46.14,25.44,9.89,54.52,16.65,97.1,18.59,42.66,1.95,56.28,2.41,164.92,2.41s122.26-.46,164.92-2.41c42.58-1.94,71.65-8.7,97.1-18.59,26.3-10.22,48.61-23.9,70.85-46.14,22.24-22.24,35.91-44.54,46.14-70.85,9.89-25.44,16.65-54.52,18.59-97.1,1.95-42.66,2.41-56.28,2.41-164.92s-.46-122.26-2.41-164.92c-1.94-42.58-8.7-71.65-18.59-97.1-10.22-26.3-23.9-48.61-46.14-70.85-22.24-22.24-44.54-35.91-70.85-46.14-25.44-9.89-54.52-16.65-97.1-18.59-42.66-1.95-56.28-2.41-164.92-2.41ZM400,194.59c-113.44,0-205.41,91.96-205.41,205.41s91.96,205.41,205.41,205.41,205.41-91.96,205.41-205.41-91.96-205.41-205.41-205.41ZM400,533.33c-73.64,0-133.33-59.7-133.33-133.33s59.7-133.33,133.33-133.33,133.33,59.7,133.33,133.33-59.7,133.33-133.33,133.33ZM661.52,186.48c0,26.51-21.49,48-48,48s-48-21.49-48-48,21.49-48,48-48,48,21.49,48,48Z"/>
  </g>
</svg>