<?xml version="1.0" encoding="UTF-8"?>
<svg id="Layer_2" data-name="Layer 2" xmlns="http://www.w3.org/2000/svg" viewBox="0 0 609.37 165.31">
  <defs>
    <style>
      .cls-1 {
        stroke-width: 1.8px;
      }

      .cls-1, .cls-2 {
        fill: #315c77;
        stroke: #315c77;
        stroke-miterlimit: 10;
      }
    </style>
  </defs>
  <g id="Layer_2-2" data-name="Layer 2">
    <g id="Layer_1-2" data-name="Layer 1-2">
      <g>
        <path class="cls-2" d="M177.34,24.14v-1.15c.95-.04,1.66-.15,2.14-.32s.79-.5.96-.99c.16-.49.24-1.2.24-2.15V5.41c0-.95-.07-1.66-.21-2.14-.14-.47-.43-.8-.86-.98-.43-.18-1.09-.29-1.96-.33V.8h9.21v1.15c-.87.02-1.52.13-1.94.32-.42.19-.71.54-.85,1.05-.14.5-.21,1.27-.21,2.3v13.06c0,1.13.16,1.99.47,2.58s.86.99,1.65,1.2c.79.21,1.88.32,3.27.32,1.56,0,2.79-.12,3.7-.36s1.61-.7,2.11-1.36c.49-.67.88-1.63,1.17-2.88h1.15l-.45,5.97h-19.59Z"/>
        <path class="cls-2" d="M230.75.5c1.78,0,3.43.31,4.96.92,1.53.62,2.86,1.48,4,2.58s2.04,2.39,2.68,3.87c.65,1.48.97,3.07.97,4.79s-.32,3.17-.97,4.61-1.55,2.69-2.7,3.76-2.49,1.91-4.02,2.52-3.17.91-4.93.91-3.4-.3-4.92-.91c-1.53-.61-2.87-1.44-4.02-2.52-1.15-1.07-2.05-2.32-2.7-3.76-.65-1.43-.97-2.97-.97-4.61s.32-3.31.97-4.79c.65-1.47,1.54-2.76,2.68-3.87,1.14-1.1,2.48-1.96,4-2.58,1.53-.62,3.18-.92,4.96-.92h0ZM230.75,22.78c1.78,0,3.31-.41,4.61-1.23s2.29-1.98,3-3.49,1.06-3.28,1.06-5.32c0-2.16-.35-4.04-1.06-5.62-.71-1.59-1.71-2.81-3-3.67s-2.83-1.29-4.61-1.29-3.31.43-4.61,1.29c-1.29.86-2.29,2.08-3,3.67s-1.06,3.46-1.06,5.62c0,2.04.35,3.81,1.06,5.32.71,1.5,1.71,2.67,3,3.49s2.83,1.23,4.61,1.23Z"/>
        <path class="cls-2" d="M285.43,24.45l-14.4-18.97h-.12v12.94c0,1.33.07,2.32.21,2.96.14.64.43,1.06.86,1.26s1.08.32,1.92.36v1.15h-8.15v-1.15c.95-.04,1.66-.16,2.14-.36.47-.2.79-.61.96-1.21.16-.61.24-1.54.24-2.79V6.32c0-1.15-.07-2.03-.21-2.64-.14-.61-.43-1.04-.86-1.29s-1.09-.4-1.96-.44V.8h6l13.25,17.67h.12V6.53c0-1.33-.07-2.32-.21-2.96-.14-.64-.42-1.06-.85-1.27-.42-.21-1.07-.33-1.94-.35V.8h8.15v1.15c-.95.02-1.66.14-2.14.35-.48.21-.79.62-.96,1.23-.16.61-.24,1.54-.24,2.79v18.13h-1.82,0Z"/>
        <path class="cls-2" d="M312.19,24.14v-1.15c1.03-.04,1.81-.15,2.33-.32.53-.17.87-.5,1.05-.99.17-.49.26-1.2.26-2.15V5.41c0-.95-.07-1.66-.21-2.14-.14-.47-.43-.8-.86-.98-.44-.18-1.09-.29-1.96-.33V.8h10.64c1.82,0,3.5.3,5.03.89,1.54.6,2.87,1.44,4,2.52s2.01,2.36,2.64,3.83c.63,1.48.94,3.08.94,4.82s-.29,3.17-.88,4.55-1.42,2.57-2.49,3.58-2.34,1.79-3.8,2.33c-1.47.55-3.08.82-4.83.82h-11.86ZM323.53,22.66c2.75,0,4.86-.83,6.35-2.49s2.23-4.07,2.23-7.25c0-2.24-.35-4.16-1.06-5.74-.71-1.59-1.71-2.8-3.02-3.64s-2.85-1.26-4.65-1.26h-3.85c-.34,0-.51.17-.51.51v16.4c0,2.3,1.5,3.46,4.52,3.46h-.01Z"/>
        <path class="cls-2" d="M371.48.5c1.78,0,3.43.31,4.96.92,1.53.62,2.86,1.48,4,2.58s2.04,2.39,2.68,3.87c.65,1.48.97,3.07.97,4.79s-.32,3.17-.97,4.61-1.55,2.69-2.7,3.76c-1.15,1.07-2.49,1.91-4.02,2.52s-3.17.91-4.93.91-3.4-.3-4.93-.91-2.86-1.44-4.02-2.52c-1.15-1.07-2.05-2.32-2.7-3.76-.65-1.43-.97-2.97-.97-4.61s.32-3.31.97-4.79c.65-1.47,1.54-2.76,2.68-3.87,1.14-1.1,2.47-1.96,4-2.58,1.53-.62,3.18-.92,4.96-.92h.02ZM371.48,22.78c1.78,0,3.31-.41,4.61-1.23,1.29-.82,2.29-1.98,3-3.49s1.06-3.28,1.06-5.32c0-2.16-.35-4.04-1.06-5.62-.71-1.59-1.71-2.81-3-3.67s-2.83-1.29-4.61-1.29-3.31.43-4.61,1.29c-1.29.86-2.29,2.08-3,3.67s-1.06,3.46-1.06,5.62c0,2.04.35,3.81,1.06,5.32.71,1.5,1.71,2.67,3,3.49s2.83,1.23,4.61,1.23Z"/>
        <path class="cls-2" d="M426.16,24.45l-14.4-18.97h-.12v12.94c0,1.33.07,2.32.21,2.96.14.64.43,1.06.86,1.26s1.08.32,1.92.36v1.15h-8.15v-1.15c.95-.04,1.66-.16,2.14-.36.47-.2.79-.61.96-1.21.16-.61.24-1.54.24-2.79V6.32c0-1.15-.07-2.03-.21-2.64-.14-.61-.43-1.04-.86-1.29s-1.09-.4-1.96-.44V.8h6l13.25,17.67h.12V6.53c0-1.33-.07-2.32-.21-2.96-.14-.64-.42-1.06-.85-1.27-.42-.21-1.07-.33-1.94-.35V.8h8.15v1.15c-.95.02-1.66.14-2.14.35-.48.21-.79.62-.96,1.23-.16.61-.24,1.54-.24,2.79v18.13h-1.82,0Z"/>
      </g>
      <g>
        <path class="cls-2" d="M188.86,161.29l-8.7-19.88h-.12v13.85c0,1.33.08,2.32.23,2.96s.46,1.06.94,1.26,1.19.32,2.14.36v1.15h-8.46v-1.15c.95-.04,1.66-.16,2.14-.36.47-.2.79-.61.96-1.21.16-.61.24-1.54.24-2.79v-12.31c0-1.15-.07-2.03-.21-2.64s-.43-1.04-.86-1.29c-.43-.25-1.09-.4-1.96-.44v-1.15h7.24l7.64,17.91h.12l7.88-17.91h6.79v1.15c-.87.02-1.52.16-1.94.41s-.71.7-.85,1.35c-.14.65-.21,1.59-.21,2.82v11.88c0,1.33.08,2.32.23,2.96s.46,1.06.94,1.26c.47.2,1.19.32,2.14.36v1.15h-9.82v-1.15c.95-.04,1.66-.16,2.14-.36s.79-.61.96-1.21c.16-.61.24-1.54.24-2.79v-14.07h-.3l-8.85,19.88h-.69Z"/>
        <path class="cls-2" d="M251.02,145.47v6.12c0,2.12-.29,3.91-.86,5.35-.58,1.45-1.5,2.53-2.77,3.26s-2.97,1.09-5.09,1.09c-1.98,0-3.63-.27-4.96-.82-1.32-.54-2.31-1.44-2.97-2.7-.66-1.25-.99-2.94-.99-5.06v-8c0-1.01,0-1.85-.03-2.53s-.08-1.24-.18-1.68c-.1-.44-.27-.79-.52-1.03-.24-.26-.57-.44-.99-.53s-.96-.14-1.65-.14v-1.15h10.34v1.15c-.69,0-1.24.04-1.67.12-.42.08-.76.28-1,.61-.26.36-.44.95-.53,1.74-.09.8-.14,1.95-.14,3.44v8.25c0,2.06.45,3.65,1.36,4.77.91,1.12,2.5,1.68,4.76,1.68,2.02,0,3.54-.57,4.55-1.7s1.52-2.78,1.52-4.94v-7.3c0-1.8-.07-3.16-.2-4.09-.13-.93-.4-1.59-.8-1.97-.26-.26-.61-.43-1.05-.5-.43-.07-.96-.11-1.59-.11v-1.15h8.79v1.15c-.63,0-1.15.05-1.58.15-.42.1-.76.32-1,.67-.3.42-.51,1.09-.61,1.99-.1.9-.15,2.19-.15,3.87h.01Z"/>
        <path class="cls-2" d="M280.03,160.66l-.46-6.79h1.12c.28,1.84,1.04,3.28,2.29,4.32s2.77,1.56,4.59,1.56c1.5,0,2.68-.36,3.55-1.08s1.3-1.67,1.3-2.86c0-.69-.16-1.3-.47-1.83-.31-.54-.85-1.06-1.62-1.56s-1.84-1.05-3.21-1.64c-1.68-.75-3-1.46-3.96-2.12s-1.64-1.39-2.03-2.17c-.39-.78-.59-1.68-.59-2.71,0-1.25.29-2.37.86-3.33s1.37-1.73,2.39-2.27c1.02-.54,2.2-.82,3.53-.82,1.7,0,3.3.6,4.82,1.79l.79-1.36h.7l.33,6.03h-1.12c-.48-1.66-1.19-2.89-2.11-3.7-.92-.81-2.03-1.21-3.32-1.21s-2.21.31-2.94.92-1.09,1.43-1.09,2.44c0,.63.15,1.19.44,1.7s.78.99,1.46,1.44c.68.46,1.59.95,2.74,1.47,2,.89,3.56,1.71,4.68,2.46s1.9,1.52,2.35,2.3.67,1.72.67,2.79c0,1.35-.35,2.55-1.05,3.58s-1.66,1.84-2.89,2.42-2.67.88-4.3.88c-1.15,0-2.19-.17-3.11-.5-.92-.33-1.85-.87-2.8-1.62l-.85,1.49h-.7v-.02Z"/>
        <path class="cls-2" d="M327.83,139.47v8.7c1.09,0,2-.07,2.74-.2.74-.13,1.32-.34,1.76-.62.43-.28.75-.65.94-1.09s.29-.97.29-1.58h1.06v8.28h-1.06c0-.61-.09-1.13-.26-1.58-.17-.44-.47-.81-.89-1.11-.42-.29-1.01-.52-1.76-.67s-1.69-.23-2.82-.23v6.85c0,.87.16,1.56.47,2.06.31.51.83.86,1.56,1.08.73.21,1.73.32,3,.32,1.43,0,2.58-.14,3.44-.42.86-.28,1.53-.76,2.02-1.44.49-.68.86-1.61,1.12-2.8h1.15l-.45,5.97h-18.82v-1.15c.95-.04,1.66-.15,2.14-.32s.79-.5.96-.99c.16-.49.24-1.2.24-2.15v-14.12c0-.95-.07-1.66-.21-2.14-.14-.47-.43-.8-.86-.98s-1.09-.29-1.96-.33v-1.15h17.52l.27,5.33h-1.06c-.16-1.07-.46-1.9-.89-2.49-.44-.59-1.08-.99-1.92-1.21-.85-.22-1.96-.33-3.33-.33h-3.85c-.16,0-.29.05-.38.14s-.14.22-.14.38h-.02Z"/>
        <path class="cls-2" d="M386.43,145.47v6.12c0,2.12-.29,3.91-.86,5.35-.58,1.45-1.5,2.53-2.77,3.26s-2.97,1.09-5.09,1.09c-1.98,0-3.63-.27-4.96-.82-1.32-.54-2.31-1.44-2.97-2.7-.66-1.25-.99-2.94-.99-5.06v-8c0-1.01,0-1.85-.03-2.53-.02-.68-.08-1.24-.18-1.68-.1-.44-.27-.79-.52-1.03-.24-.26-.57-.44-.98-.53-.42-.09-.97-.14-1.65-.14v-1.15h10.34v1.15c-.69,0-1.24.04-1.67.12-.42.08-.76.28-1,.61-.26.36-.44.95-.53,1.74-.09.8-.14,1.95-.14,3.44v8.25c0,2.06.46,3.65,1.36,4.77.91,1.12,2.5,1.68,4.76,1.68,2.02,0,3.54-.57,4.55-1.7,1.01-1.13,1.52-2.78,1.52-4.94v-7.3c0-1.8-.07-3.16-.2-4.09s-.4-1.59-.8-1.97c-.26-.26-.61-.43-1.05-.5-.43-.07-.97-.11-1.59-.11v-1.15h8.79v1.15c-.63,0-1.15.05-1.58.15-.42.1-.76.32-1,.67-.3.42-.5,1.09-.61,1.99-.1.9-.15,2.19-.15,3.87h0Z"/>
        <path class="cls-2" d="M418.13,161.29l-8.7-19.88h-.12v13.85c0,1.33.08,2.32.23,2.96s.46,1.06.94,1.26,1.19.32,2.14.36v1.15h-8.46v-1.15c.95-.04,1.66-.16,2.14-.36.47-.2.79-.61.96-1.21.16-.61.24-1.54.24-2.79v-12.31c0-1.15-.07-2.03-.21-2.64-.14-.61-.43-1.04-.86-1.29s-1.09-.4-1.96-.44v-1.15h7.24l7.64,17.91h.12l7.88-17.91h6.79v1.15c-.87.02-1.52.16-1.94.41s-.71.7-.85,1.35c-.14.65-.21,1.59-.21,2.82v11.88c0,1.33.08,2.32.23,2.96.15.64.46,1.06.94,1.26.47.2,1.19.32,2.14.36v1.15h-9.82v-1.15c.95-.04,1.66-.16,2.14-.36s.79-.61.96-1.21c.16-.61.24-1.54.24-2.79v-14.07h-.3l-8.85,19.88h-.69Z"/>
      </g>
      <g>
        <g>
          <line class="cls-1" x1=".07" y1="133.56" x2="151.19" y2="133.56"/>
          <line class="cls-1" x1="58.99" y1="164.41" x2="151.23" y2="164.41"/>
          <line class="cls-1" x1="29.53" y1="148.99" x2="151.19" y2="148.99"/>
        </g>
        <g>
          <line class="cls-1" x1="609.28" y1="133.56" x2="458.16" y2="133.56"/>
          <line class="cls-1" x1="550.36" y1="164.41" x2="458.12" y2="164.41"/>
          <line class="cls-1" x1="579.82" y1="148.99" x2="458.16" y2="148.99"/>
        </g>
      </g>
      <g>
        <path class="cls-2" d="M176.76,105.38c-1.04-.25-1.86-.77-2.46-1.56-.55-.79-.92-1.91-1.12-3.35-.2-1.44-.3-3.4-.3-5.88v-29.2c0-2.23.07-4.07.22-5.51.2-1.44.55-2.56,1.04-3.35.55-.84,1.29-1.44,2.23-1.79.99-.35,2.28-.55,3.87-.6v-2.83h-22.64v2.83c1.59.1,2.88.32,3.87.67.99.3,1.74.84,2.23,1.64.55.79.89,1.89,1.04,3.28.2,1.34.3,3.05.3,5.14v30.24c0,2.33-.1,4.2-.3,5.59-.2,1.34-.6,2.38-1.19,3.13-.6.74-1.44,1.27-2.53,1.56-1.04.25-2.43.4-4.17.45v2.83h24.13v-2.83c-1.74-.05-3.15-.2-4.25-.45h.03Z"/>
        <path class="cls-2" d="M113.35,51.31v2.83c2.23,0,3.75.27,4.54.82.84.55,1.27,1.49,1.27,2.83,0,.84-.15,1.79-.45,2.83-.3,1.04-.82,2.48-1.56,4.32l-13.11,32.33-13.26-33.52c-.7-1.74-1.17-3.05-1.42-3.95-.25-.94-.37-1.76-.37-2.46,0-.5.1-.94.3-1.34s.55-.72,1.04-.97c.5-.3,1.17-.5,2.01-.6.89-.15,2.04-.22,3.43-.22v-2.9h-24.28v2.9c1.29.1,2.41.32,3.35.67.94.35,1.79.87,2.53,1.56.74.7,1.42,1.59,2.01,2.68.65,1.09,1.29,2.38,1.94,3.87l19.22,46.4h2.61l20.18-49.23c.45-1.04.89-1.91,1.34-2.61.5-.74,1.04-1.34,1.64-1.79.65-.45,1.37-.79,2.16-1.04.84-.25,1.84-.45,2.98-.6v-2.83h-18.1v.02Z"/>
        <path class="cls-2" d="M608.86,51.29h-20.04v2.83c1.59.05,2.86.2,3.8.45.99.25,1.74.77,2.23,1.56.55.79.89,1.94,1.04,3.43.2,1.44.3,3.38.3,5.81v29.35h-.3l-32.55-43.42h-14.75v2.83c1.59.1,2.88.32,3.87.67.99.3,1.74.84,2.23,1.64.55.79.89,1.89,1.04,3.28.2,1.34.3,3.05.3,5.14v30.24c0,2.33-.1,4.2-.3,5.59-.2,1.34-.6,2.38-1.19,3.13-.6.74-1.44,1.27-2.53,1.56-1.04.25-2.43.4-4.17.45v2.83h20.04v-2.83c-1.59-.05-2.88-.2-3.87-.45-.94-.25-1.69-.77-2.23-1.56-.5-.79-.84-1.91-1.04-3.35-.15-1.44-.22-3.4-.22-5.88v-31.8h.3l35.38,46.62h4.47v-44.54c0-2.28.1-4.12.3-5.51.2-1.39.6-2.46,1.19-3.2.6-.74,1.42-1.24,2.46-1.49,1.09-.3,2.51-.47,4.25-.52v-2.86Z"/>
        <path class="cls-2" d="M395.89,105.37c-1.04-.25-1.86-.77-2.46-1.56-.55-.79-.92-1.91-1.12-3.35-.2-1.44-.3-3.4-.3-5.88v-29.2c0-2.23.07-4.07.22-5.51.2-1.44.55-2.56,1.04-3.35.55-.84,1.29-1.44,2.23-1.79.99-.35,2.28-.55,3.87-.6v-2.83h-22.64v2.83c1.59.1,2.88.32,3.87.67.99.3,1.74.84,2.23,1.64.55.79.89,1.89,1.04,3.28.2,1.34.3,3.05.3,5.14v30.24c0,2.33-.1,4.2-.3,5.59-.2,1.34-.6,2.38-1.19,3.13s-1.44,1.27-2.53,1.56c-1.04.25-2.43.4-4.17.45v2.83h24.13v-2.83c-1.74-.05-3.15-.2-4.25-.45h.03Z"/>
        <path class="cls-2" d="M289.77,51.3v14.23h2.76c.05-2.63.45-4.69,1.19-6.18s1.71-2.58,2.9-3.28c1.24-.74,2.68-1.19,4.32-1.34,1.69-.15,3.5-.22,5.44-.22,1.59,0,2.86.05,3.8.15.94.05,1.66.17,2.16.37.55.2.89.45,1.04.74.2.25.3.6.3,1.04v39.85c0,1.59-.12,2.95-.37,4.1-.2,1.14-.65,2.09-1.34,2.83-.65.7-1.61,1.24-2.9,1.64-1.29.35-2.98.55-5.06.6v2.83h28.15v-2.83c-2.09-.05-3.77-.25-5.06-.6-1.24-.4-2.21-.94-2.9-1.64-.65-.74-1.09-1.69-1.34-2.83-.2-1.14-.3-2.51-.3-4.1v-39.85c0-.45.07-.79.22-1.04.2-.3.6-.55,1.19-.74.6-.2,1.44-.32,2.53-.37,1.14-.1,2.63-.15,4.47-.15,2.14,0,3.97.17,5.51.52,1.54.35,2.81.94,3.8,1.79,1.04.79,1.84,1.91,2.38,3.35.55,1.44.89,3.23,1.04,5.36h3.05l-.75-14.23h-56.23Z"/>
        <path class="cls-2" d="M56.06,105.38c-.89-.25-1.74-.79-2.53-1.64-.79-.84-1.61-2.09-2.46-3.72-.84-1.69-1.84-3.92-2.98-6.7l-16.91-42.01h-3.2l-19.36,48.49c-.45,1.04-.92,1.94-1.42,2.68-.45.7-.99,1.27-1.64,1.71-.6.45-1.32.79-2.16,1.04-.79.25-1.76.45-2.9.6v2.83h18.1v-2.83c-2.09,0-3.58-.25-4.47-.74-.89-.55-1.34-1.51-1.34-2.9,0-.5.07-1.14.22-1.94.15-.79.4-1.76.74-2.9.4-1.14.89-2.48,1.49-4.02.51-1.37,1.12-2.91,1.82-4.61l2.77-6.93,7.77-19.6,7.27,19.32h0l3.11,8.16h-13.74v4.67h15.49l.6,1.59c.35.84.62,1.59.82,2.23.25.6.42,1.14.52,1.64.15.5.25.97.3,1.42.05.4.07.84.07,1.34,0,1.14-.5,1.96-1.49,2.46s-2.81.74-5.44.74v2.9h24.28v-2.9c-1.29,0-2.41-.12-3.35-.37h.02Z"/>
        <path class="cls-2" d="M264.5,105.37c-.89-.25-1.74-.79-2.53-1.64-.79-.84-1.61-2.09-2.46-3.72-.84-1.69-1.84-3.92-2.98-6.7l-16.91-42.01h-3.2l-19.36,48.49c-.45,1.04-.92,1.94-1.42,2.68-.45.7-.99,1.27-1.64,1.71-.6.45-1.32.79-2.16,1.04-.79.25-1.76.45-2.9.6v2.83h18.1v-2.83c-2.09,0-3.58-.25-4.47-.74-.89-.55-1.34-1.51-1.34-2.9,0-.5.07-1.14.22-1.94.15-.79.4-1.76.74-2.9.4-1.14.89-2.48,1.49-4.02.51-1.37,1.12-2.91,1.82-4.61l2.77-6.93,7.77-19.6,7.27,19.32h0l3.12,8.17h-13.55v4.67h15.3l.6,1.58c.35.84.62,1.59.82,2.23.25.6.42,1.14.52,1.64.15.5.25.97.3,1.42.05.4.07.84.07,1.34,0,1.14-.5,1.96-1.49,2.46s-2.81.74-5.44.75v2.9h24.28v-2.9c-1.29,0-2.41-.12-3.35-.37v-.02Z"/>
        <path class="cls-2" d="M455.83,60.35c2.01-2.5,4.46-4.41,7.34-5.71,2.88-1.36,6.12-2.04,9.71-2.04s6.83.68,9.71,2.04c2.88,1.31,5.33,3.21,7.34,5.71,1.81,2.2,3.24,4.85,4.31,7.93h10.11c-.05-.11-.09-.23-.14-.34-1.74-3.97-4.13-7.43-7.18-10.36-3.05-2.94-6.64-5.25-10.77-6.94-4.13-1.69-8.6-2.53-13.38-2.53s-9.25.84-13.38,2.53-7.72,4-10.77,6.94-5.44,6.39-7.18,10.36c-.05.11-.09.23-.14.34h10.11c1.06-3.08,2.5-5.73,4.31-7.93h0Z"/>
        <path class="cls-2" d="M489.89,100.82c-2.01,2.34-4.46,4.13-7.34,5.39-2.83,1.25-6.04,1.88-9.63,1.88s-6.83-.63-9.71-1.88-5.33-3.05-7.34-5.39c-1.83-2.12-3.25-4.67-4.32-7.6h-9.97c1.8,3.87,4.22,7.25,7.26,10.13,3.05,2.83,6.64,5.09,10.77,6.77,4.13,1.63,8.57,2.45,13.3,2.45s9.17-.82,13.3-2.45c4.13-1.69,7.72-3.94,10.77-6.77,3.05-2.88,5.44-6.26,7.18-10.12h0s-9.89-.01-9.89-.01c-1.07,2.93-2.52,5.48-4.4,7.6h.02Z"/>
      </g>
      <g>
        <path class="cls-2" d="M462.49,77.77c-7.79-.57-27.06-3.36-31.1-3.5-4.07-.14-12.06-1.42-14.36,1.99-1.5,2.23.92,7.68,3.88,8.75,6.01,2.19,20.33,1.42,22.52,1.31,10.96-.52,15.94-1.93,19.01-2.76-.28-1.05-.41-2.16-.37-3.3.04-.86.19-1.7.41-2.49h0Z"/>
        <circle class="cls-2" cx="472.87" cy="81.2" r="7.73" transform="translate(371.12 550.07) rotate(-87.5)"/>
      </g>
      <path class="cls-2" d="M483.93,83.66c7.79.57,27.06,3.36,31.1,3.5,4.07.14,12.06,1.42,14.36-1.99,1.5-2.23-.92-7.68-3.88-8.75-6.01-2.19-20.33-1.42-22.52-1.31-10.96.52-15.94,1.93-19.01,2.76.28,1.05.41,2.16.37,3.3-.04.86-.19,1.7-.41,2.49h0Z"/>
    </g>
  </g>
</svg>