<?xml version="1.0" encoding="UTF-8"?>
<svg id="Layer_2" data-name="Layer 2" xmlns="http://www.w3.org/2000/svg" viewBox="0 0 226.54 128.93">
  <g id="Layer_1-2" data-name="Layer 1">
    <path d="M78.5,24.48c4.03-5,8.92-8.81,14.69-11.42,5.77-2.72,12.24-4.08,19.42-4.08s13.65,1.36,19.42,4.08c5.77,2.61,10.66,6.42,14.69,11.42,3.62,4.4,6.49,9.7,8.61,15.86h20.23c-.1-.23-.18-.46-.28-.68-3.48-7.94-8.27-14.85-14.36-20.73-6.09-5.88-13.27-10.5-21.54-13.87-8.27-3.37-17.19-5.06-26.76-5.06s-18.5,1.69-26.76,5.06c-8.27,3.37-15.45,8-21.54,13.87-6.09,5.88-10.88,12.78-14.36,20.73-.1.22-.18.46-.28.68h20.23c2.12-6.16,4.99-11.46,8.61-15.86Z" style="fill: #f6efe8;"/>
    <path d="M146.63,105.43c-4.03,4.68-8.92,8.27-14.69,10.77-5.66,2.5-12.08,3.75-19.26,3.75s-13.65-1.25-19.42-3.75c-5.77-2.5-10.66-6.09-14.69-10.77-3.65-4.25-6.51-9.34-8.64-15.21h-19.93s0,.02.01.03c3.59,7.72,8.43,14.47,14.52,20.24,6.09,5.66,13.27,10.17,21.54,13.55,8.27,3.26,17.14,4.9,26.6,4.9s18.33-1.63,26.6-4.9c8.27-3.37,15.45-7.89,21.54-13.55,6.09-5.77,10.88-12.51,14.36-20.24,0,0,0-.02.01-.03h-19.78c-2.14,5.86-5.04,10.96-8.8,15.21Z" style="fill: #f6efe8;"/>
    <g>
      <path d="M91.82,59.32c-15.58-1.15-54.12-6.73-62.2-7.01-8.15-.28-24.12-2.84-28.71,3.99-3,4.46,1.85,15.36,7.75,17.51,12.02,4.38,40.66,2.83,45.04,2.63,21.93-1.04,31.87-3.86,38.02-5.53-.57-2.1-.83-4.31-.73-6.6.08-1.73.37-3.39.83-4.98Z" style="fill: #f6efe8;"/>
      <circle cx="112.61" cy="66.19" r="15.47" transform="translate(41.57 175.8) rotate(-87.5)" style="fill: #f6efe8;"/>
    </g>
    <path d="M134.72,71.11c15.58,1.15,54.12,6.73,62.2,7.01,8.15.28,24.12,2.84,28.71-3.99,3-4.46-1.85-15.36-7.75-17.51-12.02-4.38-40.66-2.83-45.04-2.63-21.93,1.04-31.87,3.86-38.02,5.53.57,2.1.83,4.31.73,6.6-.08,1.73-.37,3.39-.83,4.98Z" style="fill: #f6efe8;"/>
  </g>
</svg>