<svg width="137" height="62" viewBox="0 0 137 62" fill="none" xmlns="http://www.w3.org/2000/svg">
<path d="M83.0742 11.4844C83.5352 11.4844 83.959 11.4648 84.3457 11.4258C84.7324 11.3867 85.0703 11.3418 85.3594 11.291C85.6953 11.2363 86.002 11.1719 86.2793 11.0977L86.1094 12.0469C86.0625 12.043 85.9922 12.0391 85.8984 12.0352C85.8047 12.0312 85.6992 12.0273 85.582 12.0234C85.4688 12.0195 85.3477 12.0156 85.2188 12.0117C85.0938 12.0117 84.9746 12.0098 84.8613 12.0059C84.748 12.0059 84.6465 12.0039 84.5566 12C84.4707 12 84.4082 12 84.3691 12H81.8379V11.9766C81.8613 11.8945 81.8828 11.793 81.9023 11.6719C81.9258 11.5508 81.9453 11.4004 81.9609 11.2207C81.9766 11.041 81.9883 10.8281 81.9961 10.582C82.0039 10.332 82.0078 10.041 82.0078 9.70898V5.89453C82.0078 5.5625 82.0039 5.27344 81.9961 5.02734C81.9883 4.77734 81.9766 4.5625 81.9609 4.38281C81.9453 4.19922 81.9258 4.04688 81.9023 3.92578C81.8828 3.80469 81.8613 3.70312 81.8379 3.62109V3.59766H83.2441V3.62109C83.2207 3.70312 83.1973 3.80469 83.1738 3.92578C83.1543 4.04688 83.1367 4.19922 83.1211 4.38281C83.1094 4.5625 83.0977 4.77734 83.0859 5.02734C83.0781 5.27344 83.0742 5.5625 83.0742 5.89453V11.4844ZM91.1895 3.45703C91.8418 3.45703 92.4434 3.56445 92.9941 3.7793C93.5488 3.99023 94.0273 4.28906 94.4297 4.67578C94.832 5.05859 95.1465 5.51953 95.373 6.05859C95.5996 6.59766 95.7129 7.19336 95.7129 7.8457C95.7129 8.2168 95.6699 8.58203 95.584 8.94141C95.498 9.30078 95.3711 9.64062 95.2031 9.96094C95.0391 10.2812 94.8359 10.5781 94.5938 10.8516C94.3516 11.1211 94.0742 11.3555 93.7617 11.5547C93.4531 11.75 93.1113 11.9023 92.7363 12.0117C92.3613 12.125 91.957 12.1816 91.5234 12.1816C90.8711 12.1816 90.2676 12.0781 89.7129 11.8711C89.1621 11.6602 88.6855 11.3633 88.2832 10.9805C87.8809 10.5977 87.5664 10.1387 87.3398 9.60352C87.1133 9.06445 87 8.4668 87 7.81055C87 7.43945 87.043 7.07422 87.1289 6.71484C87.2148 6.35547 87.3398 6.01367 87.5039 5.68945C87.6719 5.36523 87.875 5.06836 88.1133 4.79883C88.3555 4.52539 88.6309 4.28906 88.9395 4.08984C89.252 3.89062 89.5957 3.73633 89.9707 3.62695C90.3496 3.51367 90.7559 3.45703 91.1895 3.45703ZM91.5234 11.6543C91.957 11.6543 92.3535 11.5762 92.7129 11.4199C93.0723 11.2637 93.3809 11.0371 93.6387 10.7402C93.9004 10.4434 94.1035 10.082 94.248 9.65625C94.3926 9.22656 94.4648 8.74023 94.4648 8.19727C94.4648 7.5957 94.3945 7.03906 94.2539 6.52734C94.1172 6.01172 93.9121 5.56641 93.6387 5.19141C93.3652 4.8125 93.0234 4.51758 92.6133 4.30664C92.207 4.0918 91.7324 3.98438 91.1895 3.98438C90.7559 3.98438 90.3594 4.0625 90 4.21875C89.6406 4.37109 89.3301 4.59375 89.0684 4.88672C88.8105 5.17969 88.6094 5.53906 88.4648 5.96484C88.3203 6.39062 88.248 6.875 88.248 7.41797C88.248 8.01562 88.3164 8.57422 88.4531 9.09375C88.5898 9.60938 88.7949 10.0566 89.0684 10.4355C89.3418 10.8145 89.6836 11.1133 90.0938 11.332C90.5039 11.5469 90.9805 11.6543 91.5234 11.6543ZM97.3652 3.59766L103.4 10.0195V5.89453C103.4 5.5625 103.396 5.27344 103.389 5.02734C103.381 4.77734 103.369 4.5625 103.354 4.38281C103.338 4.19922 103.318 4.04688 103.295 3.92578C103.275 3.80469 103.254 3.70312 103.23 3.62109V3.59766H104.273V3.62109C104.25 3.70312 104.229 3.80469 104.209 3.92578C104.189 4.04688 104.172 4.19922 104.156 4.38281C104.141 4.5625 104.129 4.77734 104.121 5.02734C104.113 5.27344 104.109 5.5625 104.109 5.89453V12.1172H103.904L97.8691 5.70117V9.70898C97.8691 10.041 97.873 10.332 97.8809 10.582C97.8887 10.8281 97.9004 11.041 97.916 11.2207C97.9316 11.4004 97.9492 11.5508 97.9688 11.6719C97.9883 11.793 98.0098 11.8945 98.0332 11.9766V12H96.9902V11.9766C97.0137 11.8945 97.0352 11.793 97.0547 11.6719C97.0781 11.5508 97.0977 11.4004 97.1133 11.2207C97.1289 11.041 97.1406 10.8281 97.1484 10.582C97.1562 10.332 97.1602 10.041 97.1602 9.70898V5.89453C97.1602 5.5625 97.1562 5.27344 97.1484 5.02734C97.1406 4.77734 97.1289 4.5625 97.1133 4.38281C97.0977 4.19922 97.0781 4.04688 97.0547 3.92578C97.0352 3.80469 97.0137 3.70312 96.9902 3.62109V3.59766H97.3652ZM107.191 4.10156C107.184 4.53906 107.176 4.96289 107.168 5.37305C107.164 5.54883 107.16 5.72852 107.156 5.91211C107.156 6.0957 107.154 6.27734 107.15 6.45703C107.15 6.63281 107.148 6.80273 107.145 6.9668C107.145 7.12695 107.145 7.26953 107.145 7.39453C107.145 7.65625 107.146 7.97266 107.15 8.34375C107.154 8.71484 107.158 9.0957 107.162 9.48633C107.17 9.87695 107.18 10.252 107.191 10.6113C107.203 10.9707 107.217 11.2695 107.232 11.5078C107.287 11.5156 107.359 11.5254 107.449 11.5371C107.543 11.5449 107.641 11.5527 107.742 11.5605C107.844 11.5645 107.943 11.5684 108.041 11.5723C108.139 11.5762 108.221 11.5781 108.287 11.5781C108.561 11.5781 108.84 11.5605 109.125 11.5254C109.414 11.4863 109.691 11.416 109.957 11.3145C110.227 11.2129 110.479 11.0742 110.713 10.8984C110.951 10.7188 111.158 10.4883 111.334 10.207C111.514 9.92578 111.654 9.58789 111.756 9.19336C111.857 8.79492 111.908 8.32617 111.908 7.78711C111.908 7.18945 111.836 6.6582 111.691 6.19336C111.547 5.72461 111.334 5.33008 111.053 5.00977C110.775 4.68945 110.43 4.44727 110.016 4.2832C109.605 4.11523 109.133 4.03125 108.598 4.03125C108.492 4.03125 108.373 4.03516 108.24 4.04297C108.107 4.04688 107.975 4.05273 107.842 4.06055C107.713 4.06445 107.59 4.07227 107.473 4.08398C107.359 4.0918 107.266 4.09766 107.191 4.10156ZM105.908 3.57422C105.998 3.57813 106.082 3.58203 106.16 3.58594C106.227 3.58984 106.295 3.59375 106.365 3.59766C106.436 3.59766 106.492 3.59766 106.535 3.59766C106.609 3.59766 106.732 3.59375 106.904 3.58594C107.08 3.57813 107.279 3.57031 107.502 3.5625C107.725 3.55469 107.955 3.54687 108.193 3.53906C108.436 3.53125 108.662 3.52734 108.873 3.52734C109.439 3.52734 109.979 3.59766 110.49 3.73828C111.002 3.87891 111.451 4.10938 111.838 4.42969C112.225 4.75 112.531 5.16992 112.758 5.68945C112.984 6.20898 113.098 6.84766 113.098 7.60547C113.098 8.14844 113.037 8.63672 112.916 9.07031C112.799 9.50391 112.633 9.88672 112.418 10.2188C112.203 10.5508 111.945 10.8359 111.645 11.0742C111.348 11.3086 111.018 11.502 110.654 11.6543C110.295 11.8066 109.91 11.918 109.5 11.9883C109.09 12.0586 108.666 12.0938 108.229 12.0938C108.072 12.0938 107.883 12.0879 107.66 12.0762C107.441 12.0684 107.221 12.0586 106.998 12.0469C106.775 12.0352 106.564 12.0234 106.365 12.0117C106.17 12.0039 106.018 12 105.908 12V11.9766C105.932 11.8945 105.953 11.793 105.973 11.6719C105.996 11.5508 106.016 11.4004 106.031 11.2207C106.047 11.041 106.059 10.8281 106.066 10.582C106.074 10.332 106.078 10.041 106.078 9.70898V5.89453C106.078 5.5625 106.074 5.27148 106.066 5.02148C106.059 4.76758 106.047 4.55078 106.031 4.37109C106.016 4.1875 105.996 4.0332 105.973 3.9082C105.953 3.7832 105.932 3.67969 105.908 3.59766V3.57422ZM118.307 3.45703C118.959 3.45703 119.561 3.56445 120.111 3.7793C120.666 3.99023 121.145 4.28906 121.547 4.67578C121.949 5.05859 122.264 5.51953 122.49 6.05859C122.717 6.59766 122.83 7.19336 122.83 7.8457C122.83 8.2168 122.787 8.58203 122.701 8.94141C122.615 9.30078 122.488 9.64062 122.32 9.96094C122.156 10.2812 121.953 10.5781 121.711 10.8516C121.469 11.1211 121.191 11.3555 120.879 11.5547C120.57 11.75 120.229 11.9023 119.854 12.0117C119.479 12.125 119.074 12.1816 118.641 12.1816C117.988 12.1816 117.385 12.0781 116.83 11.8711C116.279 11.6602 115.803 11.3633 115.4 10.9805C114.998 10.5977 114.684 10.1387 114.457 9.60352C114.23 9.06445 114.117 8.4668 114.117 7.81055C114.117 7.43945 114.16 7.07422 114.246 6.71484C114.332 6.35547 114.457 6.01367 114.621 5.68945C114.789 5.36523 114.992 5.06836 115.23 4.79883C115.473 4.52539 115.748 4.28906 116.057 4.08984C116.369 3.89062 116.713 3.73633 117.088 3.62695C117.467 3.51367 117.873 3.45703 118.307 3.45703ZM118.641 11.6543C119.074 11.6543 119.471 11.5762 119.83 11.4199C120.189 11.2637 120.498 11.0371 120.756 10.7402C121.018 10.4434 121.221 10.082 121.365 9.65625C121.51 9.22656 121.582 8.74023 121.582 8.19727C121.582 7.5957 121.512 7.03906 121.371 6.52734C121.234 6.01172 121.029 5.56641 120.756 5.19141C120.482 4.8125 120.141 4.51758 119.73 4.30664C119.324 4.0918 118.85 3.98438 118.307 3.98438C117.873 3.98438 117.477 4.0625 117.117 4.21875C116.758 4.37109 116.447 4.59375 116.186 4.88672C115.928 5.17969 115.727 5.53906 115.582 5.96484C115.438 6.39062 115.365 6.875 115.365 7.41797C115.365 8.01562 115.434 8.57422 115.57 9.09375C115.707 9.60938 115.912 10.0566 116.186 10.4355C116.459 10.8145 116.801 11.1133 117.211 11.332C117.621 11.5469 118.098 11.6543 118.641 11.6543ZM124.482 3.59766L130.518 10.0195V5.89453C130.518 5.5625 130.514 5.27344 130.506 5.02734C130.498 4.77734 130.486 4.5625 130.471 4.38281C130.455 4.19922 130.436 4.04688 130.412 3.92578C130.393 3.80469 130.371 3.70312 130.348 3.62109V3.59766H131.391V3.62109C131.367 3.70312 131.346 3.80469 131.326 3.92578C131.307 4.04688 131.289 4.19922 131.273 4.38281C131.258 4.5625 131.246 4.77734 131.238 5.02734C131.23 5.27344 131.227 5.5625 131.227 5.89453V12.1172H131.021L124.986 5.70117V9.70898C124.986 10.041 124.99 10.332 124.998 10.582C125.006 10.8281 125.018 11.041 125.033 11.2207C125.049 11.4004 125.066 11.5508 125.086 11.6719C125.105 11.793 125.127 11.8945 125.15 11.9766V12H124.107V11.9766C124.131 11.8945 124.152 11.793 124.172 11.6719C124.195 11.5508 124.215 11.4004 124.23 11.2207C124.246 11.041 124.258 10.8281 124.266 10.582C124.273 10.332 124.277 10.041 124.277 9.70898V5.89453C124.277 5.5625 124.273 5.27344 124.266 5.02734C124.258 4.77734 124.246 4.5625 124.23 4.38281C124.215 4.19922 124.195 4.04688 124.172 3.92578C124.152 3.80469 124.131 3.70312 124.107 3.62109V3.59766H124.482ZM87.6504 27V26.9766C87.6582 26.957 87.6641 26.9277 87.668 26.8887C87.6719 26.8496 87.6738 26.8145 87.6738 26.7832C87.6738 26.6621 87.6562 26.5293 87.6211 26.3848C87.5898 26.2363 87.5273 26.0527 87.4336 25.834L86.7246 24.2402C86.5059 24.2324 86.2148 24.2285 85.8516 24.2285C85.4883 24.2285 85.0957 24.2285 84.6738 24.2285C84.3652 24.2285 84.0664 24.2285 83.7773 24.2285C83.4922 24.2285 83.2344 24.2324 83.0039 24.2402L82.3301 25.7871C82.2715 25.9316 82.209 26.0898 82.1426 26.2617C82.0762 26.4336 82.043 26.6074 82.043 26.7832C82.043 26.834 82.0469 26.877 82.0547 26.9121C82.0625 26.9434 82.0703 26.9648 82.0781 26.9766V27H80.8828V26.9766C80.9531 26.9023 81.041 26.7715 81.1465 26.584C81.252 26.3926 81.3672 26.1543 81.4922 25.8691L84.8496 18.4219H85.3184L88.5 25.582C88.5742 25.75 88.6504 25.9141 88.7285 26.0742C88.8105 26.2305 88.8867 26.3711 88.957 26.4961C89.0273 26.6211 89.0898 26.7266 89.1445 26.8125C89.1992 26.8984 89.2363 26.9531 89.2559 26.9766V27H87.6504ZM83.8535 23.7246C84.0801 23.7246 84.3125 23.7246 84.5508 23.7246C84.7891 23.7207 85.0215 23.7188 85.248 23.7188C85.4785 23.7148 85.6992 23.7129 85.9102 23.7129C86.1211 23.709 86.3125 23.7051 86.4844 23.7012L84.8379 19.9805L83.2207 23.7246H83.8535ZM89.9121 18.5977V18.6211C89.9043 18.6406 89.8984 18.6699 89.8945 18.709C89.8906 18.748 89.8887 18.7832 89.8887 18.8145C89.8887 18.9355 89.9043 19.0703 89.9355 19.2188C89.9707 19.3633 90.0352 19.5449 90.1289 19.7637L92.7246 25.6172L95.2324 19.8105C95.291 19.666 95.3535 19.5078 95.4199 19.3359C95.4863 19.1641 95.5195 18.9902 95.5195 18.8145C95.5195 18.7676 95.5156 18.7285 95.5078 18.6973C95.5 18.6621 95.4922 18.6367 95.4844 18.6211V18.5977H96.6855V18.6211C96.6113 18.6953 96.5215 18.8281 96.416 19.0195C96.3105 19.2109 96.1953 19.4473 96.0703 19.7285L92.7129 27.1816H92.2441L89.0625 20.0156C88.9883 19.8477 88.9102 19.6855 88.8281 19.5293C88.75 19.373 88.6758 19.2324 88.6055 19.1074C88.5352 18.9785 88.4727 18.8711 88.418 18.7852C88.3633 18.6992 88.3262 18.6445 88.3066 18.6211V18.5977H89.9121ZM97.3359 26.9766C97.3594 26.8945 97.3809 26.793 97.4004 26.6719C97.4199 26.5508 97.4375 26.4004 97.4531 26.2207C97.4688 26.041 97.4805 25.8281 97.4883 25.582C97.4961 25.332 97.5 25.041 97.5 24.709V20.8945C97.5 20.5625 97.4961 20.2734 97.4883 20.0273C97.4805 19.7773 97.4688 19.5625 97.4531 19.3828C97.4375 19.1992 97.4199 19.0469 97.4004 18.9258C97.3809 18.8047 97.3594 18.7031 97.3359 18.6211V18.5977H98.7363V18.6211C98.7129 18.7031 98.6895 18.8047 98.666 18.9258C98.6465 19.0469 98.6289 19.1992 98.6133 19.3828C98.6016 19.5625 98.5898 19.7773 98.5781 20.0273C98.5703 20.2734 98.5664 20.5625 98.5664 20.8945V24.709C98.5664 25.041 98.5703 25.332 98.5781 25.582C98.5898 25.8281 98.6016 26.041 98.6133 26.2207C98.6289 26.4004 98.6465 26.5508 98.666 26.6719C98.6895 26.793 98.7129 26.8945 98.7363 26.9766V27H97.3359V26.9766ZM106.283 27V26.9766C106.291 26.957 106.297 26.9277 106.301 26.8887C106.305 26.8496 106.307 26.8145 106.307 26.7832C106.307 26.6621 106.289 26.5293 106.254 26.3848C106.223 26.2363 106.16 26.0527 106.066 25.834L105.357 24.2402C105.139 24.2324 104.848 24.2285 104.484 24.2285C104.121 24.2285 103.729 24.2285 103.307 24.2285C102.998 24.2285 102.699 24.2285 102.41 24.2285C102.125 24.2285 101.867 24.2324 101.637 24.2402L100.963 25.7871C100.904 25.9316 100.842 26.0898 100.775 26.2617C100.709 26.4336 100.676 26.6074 100.676 26.7832C100.676 26.834 100.68 26.877 100.688 26.9121C100.695 26.9434 100.703 26.9648 100.711 26.9766V27H99.5156V26.9766C99.5859 26.9023 99.6738 26.7715 99.7793 26.584C99.8848 26.3926 100 26.1543 100.125 25.8691L103.482 18.4219H103.951L107.133 25.582C107.207 25.75 107.283 25.9141 107.361 26.0742C107.443 26.2305 107.52 26.3711 107.59 26.4961C107.66 26.6211 107.723 26.7266 107.777 26.8125C107.832 26.8984 107.869 26.9531 107.889 26.9766V27H106.283ZM102.486 23.7246C102.713 23.7246 102.945 23.7246 103.184 23.7246C103.422 23.7207 103.654 23.7188 103.881 23.7188C104.111 23.7148 104.332 23.7129 104.543 23.7129C104.754 23.709 104.945 23.7051 105.117 23.7012L103.471 19.9805L101.854 23.7246H102.486ZM110.227 19.1133C109.766 19.1133 109.35 19.1348 108.979 19.1777C108.607 19.2168 108.287 19.2598 108.018 19.3066C107.705 19.3652 107.426 19.4297 107.18 19.5L107.35 18.5508C107.396 18.5547 107.467 18.5586 107.561 18.5625C107.654 18.5664 107.758 18.5703 107.871 18.5742C107.988 18.5781 108.109 18.582 108.234 18.5859C108.363 18.5859 108.484 18.5879 108.598 18.5918C108.711 18.5918 108.811 18.5938 108.896 18.5977C108.986 18.5977 109.051 18.5977 109.09 18.5977H112.436C112.475 18.5977 112.537 18.5977 112.623 18.5977C112.713 18.5938 112.814 18.5918 112.928 18.5918C113.041 18.5879 113.16 18.5859 113.285 18.5859C113.414 18.582 113.535 18.5781 113.648 18.5742C113.766 18.5703 113.871 18.5664 113.965 18.5625C114.059 18.5586 114.129 18.5547 114.176 18.5508L114.346 19.5C114.096 19.4297 113.814 19.3652 113.502 19.3066C113.232 19.2598 112.912 19.2168 112.541 19.1777C112.17 19.1348 111.754 19.1133 111.293 19.1133V24.709C111.293 25.041 111.297 25.332 111.305 25.582C111.316 25.8281 111.328 26.041 111.34 26.2207C111.355 26.4004 111.373 26.5508 111.393 26.6719C111.416 26.793 111.439 26.8945 111.463 26.9766V27H110.062V26.9766C110.086 26.8945 110.107 26.793 110.127 26.6719C110.146 26.5508 110.164 26.4004 110.18 26.2207C110.195 26.041 110.207 25.8281 110.215 25.582C110.223 25.332 110.227 25.041 110.227 24.709V19.1133ZM115.242 26.9766C115.266 26.8945 115.287 26.793 115.307 26.6719C115.326 26.5508 115.344 26.4004 115.359 26.2207C115.375 26.041 115.387 25.8281 115.395 25.582C115.402 25.332 115.406 25.041 115.406 24.709V20.8945C115.406 20.5625 115.402 20.2734 115.395 20.0273C115.387 19.7773 115.375 19.5625 115.359 19.3828C115.344 19.1992 115.326 19.0469 115.307 18.9258C115.287 18.8047 115.266 18.7031 115.242 18.6211V18.5977H116.643V18.6211C116.619 18.7031 116.596 18.8047 116.572 18.9258C116.553 19.0469 116.535 19.1992 116.52 19.3828C116.508 19.5625 116.496 19.7773 116.484 20.0273C116.477 20.2734 116.473 20.5625 116.473 20.8945V24.709C116.473 25.041 116.477 25.332 116.484 25.582C116.496 25.8281 116.508 26.041 116.52 26.2207C116.535 26.4004 116.553 26.5508 116.572 26.6719C116.596 26.793 116.619 26.8945 116.643 26.9766V27H115.242V26.9766ZM122.209 18.457C122.861 18.457 123.463 18.5645 124.014 18.7793C124.568 18.9902 125.047 19.2891 125.449 19.6758C125.852 20.0586 126.166 20.5195 126.393 21.0586C126.619 21.5977 126.732 22.1934 126.732 22.8457C126.732 23.2168 126.689 23.582 126.604 23.9414C126.518 24.3008 126.391 24.6406 126.223 24.9609C126.059 25.2812 125.855 25.5781 125.613 25.8516C125.371 26.1211 125.094 26.3555 124.781 26.5547C124.473 26.75 124.131 26.9023 123.756 27.0117C123.381 27.125 122.977 27.1816 122.543 27.1816C121.891 27.1816 121.287 27.0781 120.732 26.8711C120.182 26.6602 119.705 26.3633 119.303 25.9805C118.9 25.5977 118.586 25.1387 118.359 24.6035C118.133 24.0645 118.02 23.4668 118.02 22.8105C118.02 22.4395 118.062 22.0742 118.148 21.7148C118.234 21.3555 118.359 21.0137 118.523 20.6895C118.691 20.3652 118.895 20.0684 119.133 19.7988C119.375 19.5254 119.65 19.2891 119.959 19.0898C120.271 18.8906 120.615 18.7363 120.99 18.627C121.369 18.5137 121.775 18.457 122.209 18.457ZM122.543 26.6543C122.977 26.6543 123.373 26.5762 123.732 26.4199C124.092 26.2637 124.4 26.0371 124.658 25.7402C124.92 25.4434 125.123 25.082 125.268 24.6562C125.412 24.2266 125.484 23.7402 125.484 23.1973C125.484 22.5957 125.414 22.0391 125.273 21.5273C125.137 21.0117 124.932 20.5664 124.658 20.1914C124.385 19.8125 124.043 19.5176 123.633 19.3066C123.227 19.0918 122.752 18.9844 122.209 18.9844C121.775 18.9844 121.379 19.0625 121.02 19.2188C120.66 19.3711 120.35 19.5938 120.088 19.8867C119.83 20.1797 119.629 20.5391 119.484 20.9648C119.34 21.3906 119.268 21.875 119.268 22.418C119.268 23.0156 119.336 23.5742 119.473 24.0938C119.609 24.6094 119.814 25.0566 120.088 25.4355C120.361 25.8145 120.703 26.1133 121.113 26.332C121.523 26.5469 122 26.6543 122.543 26.6543ZM128.385 18.5977L134.42 25.0195V20.8945C134.42 20.5625 134.416 20.2734 134.408 20.0273C134.4 19.7773 134.389 19.5625 134.373 19.3828C134.357 19.1992 134.338 19.0469 134.314 18.9258C134.295 18.8047 134.273 18.7031 134.25 18.6211V18.5977H135.293V18.6211C135.27 18.7031 135.248 18.8047 135.229 18.9258C135.209 19.0469 135.191 19.1992 135.176 19.3828C135.16 19.5625 135.148 19.7773 135.141 20.0273C135.133 20.2734 135.129 20.5625 135.129 20.8945V27.1172H134.924L128.889 20.7012V24.709C128.889 25.041 128.893 25.332 128.9 25.582C128.908 25.8281 128.92 26.041 128.936 26.2207C128.951 26.4004 128.969 26.5508 128.988 26.6719C129.008 26.793 129.029 26.8945 129.053 26.9766V27H128.01V26.9766C128.033 26.8945 128.055 26.793 128.074 26.6719C128.098 26.5508 128.117 26.4004 128.133 26.2207C128.148 26.041 128.16 25.8281 128.168 25.582C128.176 25.332 128.18 25.041 128.18 24.709V20.8945C128.18 20.5625 128.176 20.2734 128.168 20.0273C128.16 19.7773 128.148 19.5625 128.133 19.3828C128.117 19.1992 128.098 19.0469 128.074 18.9258C128.055 18.8047 128.033 18.7031 128.01 18.6211V18.5977H128.385ZM81.4219 41.9766C81.4648 41.9141 81.5137 41.8223 81.5684 41.7012C81.623 41.5762 81.666 41.4199 81.6973 41.2324C81.7402 40.959 81.7871 40.6523 81.8379 40.3125C81.8926 39.9688 81.9473 39.6094 82.002 39.2344C82.0605 38.8594 82.1172 38.4766 82.1719 38.0859C82.2305 37.6914 82.2852 37.3047 82.3359 36.9258C82.3906 36.543 82.4414 36.1758 82.4883 35.8242C82.5391 35.4688 82.584 35.1445 82.623 34.8516C82.6621 34.5586 82.6934 34.3047 82.7168 34.0898C82.7441 33.8711 82.7637 33.707 82.7754 33.5977H83.5195L87.2051 40.4883L90.8613 33.5977H91.418L92.3789 40.5586C92.4062 40.7773 92.4355 40.9648 92.4668 41.1211C92.498 41.2773 92.5293 41.4121 92.5605 41.5254C92.5918 41.6348 92.6211 41.7266 92.6484 41.8008C92.6797 41.8711 92.709 41.9297 92.7363 41.9766V42H91.2598V41.9766C91.2793 41.9336 91.2969 41.8633 91.3125 41.7656C91.332 41.668 91.3418 41.5508 91.3418 41.4141C91.3418 41.3633 91.3398 41.3125 91.3359 41.2617C91.332 41.207 91.3262 41.1484 91.3184 41.0859L90.5742 35.4727L87.1172 41.9766L86.7129 41.9297L83.2324 35.4141C83.0957 36.3398 82.9766 37.1953 82.875 37.9805C82.832 38.3164 82.7891 38.6523 82.7461 38.9883C82.7031 39.3203 82.6641 39.6309 82.6289 39.9199C82.5977 40.209 82.5723 40.4648 82.5527 40.6875C82.5332 40.9062 82.5234 41.0684 82.5234 41.1738C82.5234 41.3066 82.5273 41.4238 82.5352 41.5254C82.543 41.627 82.5508 41.7129 82.5586 41.7832C82.5703 41.8652 82.582 41.9375 82.5938 42H81.4219V41.9766ZM100.072 35.8945C100.072 35.5625 100.068 35.2734 100.061 35.0273C100.053 34.7773 100.041 34.5625 100.025 34.3828C100.01 34.1992 99.9922 34.0469 99.9727 33.9258C99.9531 33.8047 99.9316 33.7031 99.9082 33.6211V33.5977H100.951V33.6211C100.928 33.7031 100.904 33.8047 100.881 33.9258C100.861 34.0469 100.844 34.1992 100.828 34.3828C100.816 34.5625 100.805 34.7773 100.793 35.0273C100.785 35.2734 100.781 35.5625 100.781 35.8945V39.0586C100.781 39.6172 100.701 40.0938 100.541 40.4883C100.381 40.8828 100.158 41.207 99.873 41.4609C99.5879 41.7109 99.2461 41.8926 98.8477 42.0059C98.4492 42.123 98.0137 42.1816 97.541 42.1816C97.0684 42.1816 96.627 42.127 96.2168 42.0176C95.8105 41.9082 95.4551 41.7324 95.1504 41.4902C94.8496 41.2441 94.6133 40.9277 94.4414 40.541C94.2695 40.1504 94.1836 39.6758 94.1836 39.1172V35.8945C94.1836 35.5625 94.1797 35.2734 94.1719 35.0273C94.1641 34.7773 94.1523 34.5625 94.1367 34.3828C94.1211 34.1992 94.1016 34.0469 94.0781 33.9258C94.0586 33.8047 94.0371 33.7031 94.0137 33.6211V33.5977H95.4199V33.6211C95.3965 33.7031 95.373 33.8047 95.3496 33.9258C95.3301 34.0469 95.3125 34.1992 95.2969 34.3828C95.2812 34.5625 95.2695 34.7773 95.2617 35.0273C95.2539 35.2734 95.25 35.5625 95.25 35.8945V39.1816C95.25 39.6465 95.3184 40.0312 95.4551 40.3359C95.5957 40.6367 95.7793 40.877 96.0059 41.0566C96.2324 41.2324 96.4902 41.3555 96.7793 41.4258C97.0684 41.4961 97.3633 41.5312 97.6641 41.5312C97.9648 41.5312 98.2598 41.4961 98.5488 41.4258C98.8379 41.3555 99.0938 41.2324 99.3164 41.0566C99.543 40.877 99.7246 40.6367 99.8613 40.3359C100.002 40.0312 100.072 39.6465 100.072 39.1816V35.8945ZM106.084 34.9336H105.955C105.924 34.8438 105.873 34.7422 105.803 34.6289C105.736 34.5156 105.646 34.4102 105.533 34.3125C105.424 34.2109 105.289 34.127 105.129 34.0605C104.973 33.9941 104.787 33.9609 104.572 33.9609C104.381 33.9609 104.211 33.9902 104.062 34.0488C103.914 34.1074 103.789 34.1895 103.688 34.2949C103.59 34.4004 103.516 34.5254 103.465 34.6699C103.414 34.8145 103.389 34.9746 103.389 35.1504C103.389 35.4316 103.467 35.7012 103.623 35.959C103.783 36.2129 103.982 36.4648 104.221 36.7148C104.459 36.9648 104.717 37.2148 104.994 37.4648C105.271 37.7148 105.529 37.9746 105.768 38.2441C106.006 38.5137 106.203 38.7969 106.359 39.0938C106.52 39.3867 106.6 39.7031 106.6 40.043C106.6 40.2969 106.555 40.5527 106.465 40.8105C106.379 41.0645 106.244 41.293 106.061 41.4961C105.877 41.6992 105.641 41.8652 105.352 41.9941C105.062 42.1191 104.719 42.1816 104.32 42.1816C104.098 42.1816 103.885 42.1602 103.682 42.1172C103.482 42.0781 103.297 42.0293 103.125 41.9707C102.957 41.9082 102.805 41.8418 102.668 41.7715C102.535 41.7012 102.426 41.6367 102.34 41.5781L102.475 40.2832H102.621C102.664 40.4668 102.734 40.6426 102.832 40.8105C102.93 40.9746 103.049 41.1211 103.189 41.25C103.334 41.375 103.498 41.4766 103.682 41.5547C103.865 41.6289 104.066 41.666 104.285 41.666C104.484 41.666 104.662 41.6367 104.818 41.5781C104.979 41.5156 105.115 41.4316 105.229 41.3262C105.342 41.2168 105.428 41.0879 105.486 40.9395C105.549 40.791 105.58 40.6289 105.58 40.4531C105.58 40.207 105.535 39.9805 105.445 39.7734C105.355 39.5625 105.236 39.3633 105.088 39.1758C104.943 38.9883 104.777 38.8066 104.59 38.6309C104.406 38.4551 104.217 38.2793 104.021 38.1035C103.826 37.9238 103.635 37.7402 103.447 37.5527C103.264 37.3652 103.098 37.166 102.949 36.9551C102.805 36.7402 102.688 36.5117 102.598 36.2695C102.508 36.0234 102.463 35.7539 102.463 35.4609C102.463 35.1523 102.521 34.875 102.639 34.6289C102.76 34.3789 102.918 34.166 103.113 33.9902C103.312 33.8145 103.537 33.6797 103.787 33.5859C104.037 33.4922 104.295 33.4453 104.561 33.4453C104.756 33.4453 104.936 33.4609 105.1 33.4922C105.264 33.5234 105.41 33.5605 105.539 33.6035C105.672 33.6465 105.787 33.6895 105.885 33.7324C105.982 33.7754 106.062 33.8105 106.125 33.8379L106.084 34.9336ZM108.041 33.5977C108.529 33.5977 109.014 33.5957 109.494 33.5918C109.979 33.5879 110.422 33.584 110.824 33.5801C111.227 33.5723 111.57 33.5625 111.855 33.5508C112.141 33.5391 112.334 33.5234 112.436 33.5039L112.148 34.2832C112.02 34.248 111.869 34.2168 111.697 34.1895C111.549 34.166 111.367 34.1445 111.152 34.125C110.941 34.1016 110.697 34.0898 110.42 34.0898C110.326 34.0898 110.213 34.0938 110.08 34.1016C109.951 34.1055 109.826 34.1113 109.705 34.1191C109.564 34.127 109.422 34.1348 109.277 34.1426V37.3418C109.68 37.3379 110.043 37.3262 110.367 37.3066C110.691 37.2871 110.967 37.2676 111.193 37.248C111.459 37.2246 111.693 37.1973 111.896 37.166L111.715 38.0156C111.445 37.9805 111.17 37.9473 110.889 37.916C110.646 37.8887 110.383 37.8652 110.098 37.8457C109.812 37.8223 109.539 37.8105 109.277 37.8105V41.4844C109.738 41.4844 110.162 41.4648 110.549 41.4258C110.936 41.3867 111.273 41.3418 111.562 41.291C111.898 41.2363 112.205 41.1719 112.482 41.0977L112.312 42.0469C112.266 42.043 112.195 42.0391 112.102 42.0352C112.008 42.0312 111.902 42.0273 111.785 42.0234C111.672 42.0195 111.551 42.0156 111.422 42.0117C111.297 42.0117 111.178 42.0098 111.064 42.0059C110.951 42.0059 110.85 42.0039 110.76 42C110.674 42 110.611 42 110.572 42H108.041V41.9766C108.064 41.8945 108.086 41.793 108.105 41.6719C108.129 41.5508 108.148 41.4004 108.164 41.2207C108.18 41.041 108.191 40.8281 108.199 40.582C108.207 40.332 108.211 40.041 108.211 39.709V35.8945C108.211 35.5625 108.207 35.2734 108.199 35.0273C108.191 34.7773 108.18 34.5625 108.164 34.3828C108.148 34.1992 108.129 34.0469 108.105 33.9258C108.086 33.8047 108.064 33.7031 108.041 33.6211V33.5977ZM119.936 35.8945C119.936 35.5625 119.932 35.2734 119.924 35.0273C119.916 34.7773 119.904 34.5625 119.889 34.3828C119.873 34.1992 119.855 34.0469 119.836 33.9258C119.816 33.8047 119.795 33.7031 119.771 33.6211V33.5977H120.814V33.6211C120.791 33.7031 120.768 33.8047 120.744 33.9258C120.725 34.0469 120.707 34.1992 120.691 34.3828C120.68 34.5625 120.668 34.7773 120.656 35.0273C120.648 35.2734 120.645 35.5625 120.645 35.8945V39.0586C120.645 39.6172 120.564 40.0938 120.404 40.4883C120.244 40.8828 120.021 41.207 119.736 41.4609C119.451 41.7109 119.109 41.8926 118.711 42.0059C118.312 42.123 117.877 42.1816 117.404 42.1816C116.932 42.1816 116.49 42.127 116.08 42.0176C115.674 41.9082 115.318 41.7324 115.014 41.4902C114.713 41.2441 114.477 40.9277 114.305 40.541C114.133 40.1504 114.047 39.6758 114.047 39.1172V35.8945C114.047 35.5625 114.043 35.2734 114.035 35.0273C114.027 34.7773 114.016 34.5625 114 34.3828C113.984 34.1992 113.965 34.0469 113.941 33.9258C113.922 33.8047 113.9 33.7031 113.877 33.6211V33.5977H115.283V33.6211C115.26 33.7031 115.236 33.8047 115.213 33.9258C115.193 34.0469 115.176 34.1992 115.16 34.3828C115.145 34.5625 115.133 34.7773 115.125 35.0273C115.117 35.2734 115.113 35.5625 115.113 35.8945V39.1816C115.113 39.6465 115.182 40.0312 115.318 40.3359C115.459 40.6367 115.643 40.877 115.869 41.0566C116.096 41.2324 116.354 41.3555 116.643 41.4258C116.932 41.4961 117.227 41.5312 117.527 41.5312C117.828 41.5312 118.123 41.4961 118.412 41.4258C118.701 41.3555 118.957 41.2324 119.18 41.0566C119.406 40.877 119.588 40.6367 119.725 40.3359C119.865 40.0312 119.936 39.6465 119.936 39.1816V35.8945ZM122.027 41.9766C122.07 41.9141 122.119 41.8223 122.174 41.7012C122.229 41.5762 122.271 41.4199 122.303 41.2324C122.346 40.959 122.393 40.6523 122.443 40.3125C122.498 39.9688 122.553 39.6094 122.607 39.2344C122.666 38.8594 122.723 38.4766 122.777 38.0859C122.836 37.6914 122.891 37.3047 122.941 36.9258C122.996 36.543 123.047 36.1758 123.094 35.8242C123.145 35.4688 123.189 35.1445 123.229 34.8516C123.268 34.5586 123.299 34.3047 123.322 34.0898C123.35 33.8711 123.369 33.707 123.381 33.5977H124.125L127.811 40.4883L131.467 33.5977H132.023L132.984 40.5586C133.012 40.7773 133.041 40.9648 133.072 41.1211C133.104 41.2773 133.135 41.4121 133.166 41.5254C133.197 41.6348 133.227 41.7266 133.254 41.8008C133.285 41.8711 133.314 41.9297 133.342 41.9766V42H131.865V41.9766C131.885 41.9336 131.902 41.8633 131.918 41.7656C131.938 41.668 131.947 41.5508 131.947 41.4141C131.947 41.3633 131.945 41.3125 131.941 41.2617C131.938 41.207 131.932 41.1484 131.924 41.0859L131.18 35.4727L127.723 41.9766L127.318 41.9297L123.838 35.4141C123.701 36.3398 123.582 37.1953 123.48 37.9805C123.438 38.3164 123.395 38.6523 123.352 38.9883C123.309 39.3203 123.27 39.6309 123.234 39.9199C123.203 40.209 123.178 40.4648 123.158 40.6875C123.139 40.9062 123.129 41.0684 123.129 41.1738C123.129 41.3066 123.133 41.4238 123.141 41.5254C123.148 41.627 123.156 41.7129 123.164 41.7832C123.176 41.8652 123.188 41.9375 123.199 42H122.027V41.9766Z" fill="#F6EFE8"/>
<path d="M8.78641 56.7043L10.7064 52.5043H11.1444L13.0644 56.7043H12.5964L10.8324 52.7623H11.0124L9.24841 56.7043H8.78641ZM9.54241 55.5823L9.67441 55.2223H12.1164L12.2484 55.5823H9.54241ZM16.8655 56.7343C16.5935 56.7343 16.3475 56.6723 16.1275 56.5483C15.9075 56.4203 15.7315 56.2383 15.5995 56.0023C15.4715 55.7623 15.4075 55.4703 15.4075 55.1263C15.4075 54.7823 15.4715 54.4923 15.5995 54.2563C15.7275 54.0163 15.9015 53.8343 16.1215 53.7103C16.3415 53.5863 16.5895 53.5243 16.8655 53.5243C17.1655 53.5243 17.4335 53.5923 17.6695 53.7283C17.9095 53.8603 18.0975 54.0483 18.2335 54.2923C18.3695 54.5323 18.4375 54.8103 18.4375 55.1263C18.4375 55.4463 18.3695 55.7263 18.2335 55.9663C18.0975 56.2063 17.9095 56.3943 17.6695 56.5303C17.4335 56.6663 17.1655 56.7343 16.8655 56.7343ZM15.2395 57.8683V53.5543H15.6475V54.5023L15.6055 55.1323L15.6655 55.7683V57.8683H15.2395ZM16.8355 56.3563C17.0595 56.3563 17.2595 56.3063 17.4355 56.2063C17.6115 56.1023 17.7515 55.9583 17.8555 55.7743C17.9595 55.5863 18.0115 55.3703 18.0115 55.1263C18.0115 54.8823 17.9595 54.6683 17.8555 54.4843C17.7515 54.3003 17.6115 54.1563 17.4355 54.0523C17.2595 53.9483 17.0595 53.8963 16.8355 53.8963C16.6115 53.8963 16.4095 53.9483 16.2295 54.0523C16.0535 54.1563 15.9135 54.3003 15.8095 54.4843C15.7095 54.6683 15.6595 54.8823 15.6595 55.1263C15.6595 55.3703 15.7095 55.5863 15.8095 55.7743C15.9135 55.9583 16.0535 56.1023 16.2295 56.2063C16.4095 56.3063 16.6115 56.3563 16.8355 56.3563ZM19.3059 56.7043V53.5543H19.7139V54.4123L19.6719 54.2623C19.7599 54.0223 19.9079 53.8403 20.1159 53.7163C20.3239 53.5883 20.5819 53.5243 20.8899 53.5243V53.9383C20.8739 53.9383 20.8579 53.9383 20.8419 53.9383C20.8259 53.9343 20.8099 53.9323 20.7939 53.9323C20.4619 53.9323 20.2019 54.0343 20.0139 54.2383C19.8259 54.4383 19.7319 54.7243 19.7319 55.0963V56.7043H19.3059ZM22.9219 56.7343C22.6179 56.7343 22.3439 56.6663 22.0999 56.5303C21.8599 56.3903 21.6699 56.2003 21.5299 55.9603C21.3899 55.7163 21.3199 55.4383 21.3199 55.1263C21.3199 54.8103 21.3899 54.5323 21.5299 54.2923C21.6699 54.0523 21.8599 53.8643 22.0999 53.7283C22.3399 53.5923 22.6139 53.5243 22.9219 53.5243C23.2339 53.5243 23.5099 53.5923 23.7499 53.7283C23.9939 53.8643 24.1839 54.0523 24.3199 54.2923C24.4599 54.5323 24.5299 54.8103 24.5299 55.1263C24.5299 55.4383 24.4599 55.7163 24.3199 55.9603C24.1839 56.2003 23.9939 56.3903 23.7499 56.5303C23.5059 56.6663 23.2299 56.7343 22.9219 56.7343ZM22.9219 56.3563C23.1499 56.3563 23.3519 56.3063 23.5279 56.2063C23.7039 56.1023 23.8419 55.9583 23.9419 55.7743C24.0459 55.5863 24.0979 55.3703 24.0979 55.1263C24.0979 54.8783 24.0459 54.6623 23.9419 54.4783C23.8419 54.2943 23.7039 54.1523 23.5279 54.0523C23.3519 53.9483 23.1519 53.8963 22.9279 53.8963C22.7039 53.8963 22.5039 53.9483 22.3279 54.0523C22.1519 54.1523 22.0119 54.2943 21.9079 54.4783C21.8039 54.6623 21.7519 54.8783 21.7519 55.1263C21.7519 55.3703 21.8039 55.5863 21.9079 55.7743C22.0119 55.9583 22.1519 56.1023 22.3279 56.2063C22.5039 56.3063 22.7019 56.3563 22.9219 56.3563ZM24.9317 57.8983C24.8037 57.8983 24.6817 57.8803 24.5657 57.8443C24.4457 57.8123 24.3457 57.7623 24.2657 57.6943L24.4157 57.3703C24.5437 57.4783 24.7077 57.5323 24.9077 57.5323C25.0757 57.5323 25.2037 57.4823 25.2917 57.3823C25.3837 57.2823 25.4297 57.1343 25.4297 56.9383V53.5543H25.8557V56.9383C25.8557 57.2303 25.7757 57.4623 25.6157 57.6343C25.4597 57.8103 25.2317 57.8983 24.9317 57.8983ZM25.6457 52.8583C25.5577 52.8583 25.4837 52.8283 25.4237 52.7683C25.3637 52.7083 25.3337 52.6363 25.3337 52.5523C25.3337 52.4683 25.3637 52.3983 25.4237 52.3423C25.4837 52.2823 25.5577 52.2523 25.6457 52.2523C25.7337 52.2523 25.8077 52.2803 25.8677 52.3363C25.9277 52.3923 25.9577 52.4623 25.9577 52.5463C25.9577 52.6343 25.9277 52.7083 25.8677 52.7683C25.8117 52.8283 25.7377 52.8583 25.6457 52.8583ZM28.3841 56.7343C28.0561 56.7343 27.7681 56.6663 27.5201 56.5303C27.2721 56.3903 27.0781 56.2003 26.9381 55.9603C26.7981 55.7163 26.7281 55.4383 26.7281 55.1263C26.7281 54.8143 26.7941 54.5383 26.9261 54.2983C27.0621 54.0583 27.2461 53.8703 27.4781 53.7343C27.7141 53.5943 27.9781 53.5243 28.2701 53.5243C28.5661 53.5243 28.8281 53.5923 29.0561 53.7283C29.2881 53.8603 29.4701 54.0483 29.6021 54.2923C29.7341 54.5323 29.8001 54.8103 29.8001 55.1263C29.8001 55.1463 29.7981 55.1683 29.7941 55.1923C29.7941 55.2123 29.7941 55.2343 29.7941 55.2583H27.0521V54.9403H29.5661L29.3981 55.0663C29.3981 54.8383 29.3481 54.6363 29.2481 54.4603C29.1521 54.2803 29.0201 54.1403 28.8521 54.0403C28.6841 53.9403 28.4901 53.8903 28.2701 53.8903C28.0541 53.8903 27.8601 53.9403 27.6881 54.0403C27.5161 54.1403 27.3821 54.2803 27.2861 54.4603C27.1901 54.6403 27.1421 54.8463 27.1421 55.0783V55.1443C27.1421 55.3843 27.1941 55.5963 27.2981 55.7803C27.4061 55.9603 27.5541 56.1023 27.7421 56.2063C27.9341 56.3063 28.1521 56.3563 28.3961 56.3563C28.5881 56.3563 28.7661 56.3223 28.9301 56.2543C29.0981 56.1863 29.2421 56.0823 29.3621 55.9423L29.6021 56.2183C29.4621 56.3863 29.2861 56.5143 29.0741 56.6023C28.8661 56.6903 28.6361 56.7343 28.3841 56.7343ZM31.9752 56.7343C31.6632 56.7343 31.3832 56.6663 31.1352 56.5303C30.8912 56.3903 30.6992 56.2003 30.5592 55.9603C30.4192 55.7163 30.3492 55.4383 30.3492 55.1263C30.3492 54.8103 30.4192 54.5323 30.5592 54.2923C30.6992 54.0523 30.8912 53.8643 31.1352 53.7283C31.3832 53.5923 31.6632 53.5243 31.9752 53.5243C32.2432 53.5243 32.4852 53.5763 32.7012 53.6803C32.9172 53.7843 33.0872 53.9403 33.2112 54.1483L32.8932 54.3643C32.7852 54.2043 32.6512 54.0863 32.4912 54.0103C32.3312 53.9343 32.1572 53.8963 31.9692 53.8963C31.7452 53.8963 31.5432 53.9483 31.3632 54.0523C31.1832 54.1523 31.0412 54.2943 30.9372 54.4783C30.8332 54.6623 30.7812 54.8783 30.7812 55.1263C30.7812 55.3743 30.8332 55.5903 30.9372 55.7743C31.0412 55.9583 31.1832 56.1023 31.3632 56.2063C31.5432 56.3063 31.7452 56.3563 31.9692 56.3563C32.1572 56.3563 32.3312 56.3183 32.4912 56.2423C32.6512 56.1663 32.7852 56.0503 32.8932 55.8943L33.2112 56.1103C33.0872 56.3143 32.9172 56.4703 32.7012 56.5783C32.4852 56.6823 32.2432 56.7343 31.9752 56.7343ZM35.0793 56.7343C34.7833 56.7343 34.5553 56.6543 34.3953 56.4943C34.2353 56.3343 34.1553 56.1083 34.1553 55.8163V52.8583H34.5813V55.7923C34.5813 55.9763 34.6273 56.1183 34.7193 56.2183C34.8153 56.3183 34.9513 56.3683 35.1273 56.3683C35.3153 56.3683 35.4713 56.3143 35.5953 56.2063L35.7453 56.5123C35.6613 56.5883 35.5593 56.6443 35.4393 56.6803C35.3233 56.7163 35.2033 56.7343 35.0793 56.7343ZM33.5913 53.9083V53.5543H35.5413V53.9083H33.5913ZM39.3751 56.7343C39.0711 56.7343 38.7971 56.6663 38.5531 56.5303C38.3131 56.3903 38.1231 56.2003 37.9831 55.9603C37.8431 55.7163 37.7731 55.4383 37.7731 55.1263C37.7731 54.8103 37.8431 54.5323 37.9831 54.2923C38.1231 54.0523 38.3131 53.8643 38.5531 53.7283C38.7931 53.5923 39.0671 53.5243 39.3751 53.5243C39.6871 53.5243 39.9631 53.5923 40.2031 53.7283C40.4471 53.8643 40.6371 54.0523 40.7731 54.2923C40.9131 54.5323 40.9831 54.8103 40.9831 55.1263C40.9831 55.4383 40.9131 55.7163 40.7731 55.9603C40.6371 56.2003 40.4471 56.3903 40.2031 56.5303C39.9591 56.6663 39.6831 56.7343 39.3751 56.7343ZM39.3751 56.3563C39.6031 56.3563 39.8051 56.3063 39.9811 56.2063C40.1571 56.1023 40.2951 55.9583 40.3951 55.7743C40.4991 55.5863 40.5511 55.3703 40.5511 55.1263C40.5511 54.8783 40.4991 54.6623 40.3951 54.4783C40.2951 54.2943 40.1571 54.1523 39.9811 54.0523C39.8051 53.9483 39.6051 53.8963 39.3811 53.8963C39.1571 53.8963 38.9571 53.9483 38.7811 54.0523C38.6051 54.1523 38.4651 54.2943 38.3611 54.4783C38.2571 54.6623 38.2051 54.8783 38.2051 55.1263C38.2051 55.3703 38.2571 55.5863 38.3611 55.7743C38.4651 55.9583 38.6051 56.1023 38.7811 56.2063C38.9571 56.3063 39.1551 56.3563 39.3751 56.3563ZM41.9248 56.7043V53.1583C41.9248 52.8783 42.0068 52.6523 42.1708 52.4803C42.3348 52.3083 42.5708 52.2223 42.8788 52.2223C42.9988 52.2223 43.1148 52.2383 43.2268 52.2703C43.3388 52.3023 43.4328 52.3523 43.5088 52.4203L43.3648 52.7383C43.3048 52.6863 43.2348 52.6483 43.1548 52.6243C43.0748 52.5963 42.9888 52.5823 42.8968 52.5823C42.7168 52.5823 42.5788 52.6323 42.4828 52.7323C42.3868 52.8323 42.3388 52.9803 42.3388 53.1763V53.6563L42.3508 53.8543V56.7043H41.9248ZM41.3608 53.9083V53.5543H43.3108V53.9083H41.3608ZM45.1023 55.6003V55.2883L47.3283 52.5043H47.8083L45.6003 55.2883L45.3663 55.2163H48.7443V55.6003H45.1023ZM47.4723 56.7043V55.6003L47.4843 55.2163V54.2443H47.9043V56.7043H47.4723ZM49.0514 56.7043V56.3983L50.7974 54.6883C50.9574 54.5323 51.0774 54.3963 51.1574 54.2803C51.2374 54.1603 51.2914 54.0483 51.3194 53.9443C51.3474 53.8403 51.3614 53.7423 51.3614 53.6503C51.3614 53.4063 51.2774 53.2143 51.1094 53.0743C50.9454 52.9343 50.7014 52.8643 50.3774 52.8643C50.1294 52.8643 49.9094 52.9023 49.7174 52.9783C49.5294 53.0543 49.3674 53.1723 49.2314 53.3323L48.9254 53.0683C49.0894 52.8763 49.2994 52.7283 49.5554 52.6243C49.8114 52.5203 50.0974 52.4683 50.4134 52.4683C50.6974 52.4683 50.9434 52.5143 51.1514 52.6063C51.3594 52.6943 51.5194 52.8243 51.6314 52.9963C51.7474 53.1683 51.8054 53.3703 51.8054 53.6023C51.8054 53.7383 51.7854 53.8723 51.7454 54.0043C51.7094 54.1363 51.6414 54.2763 51.5414 54.4243C51.4454 54.5683 51.3034 54.7323 51.1154 54.9163L49.5134 56.4883L49.3934 56.3203H51.9974V56.7043H49.0514ZM53.2658 56.7043L55.0778 52.6963L55.2098 52.8883H52.6118L52.8338 52.6783V53.6743H52.4078V52.5043H55.4918V52.8103L53.7338 56.7043H53.2658ZM58.9573 56.7043L57.5413 52.5043H57.9973L59.3233 56.4583H59.0953L60.4633 52.5043H60.8713L62.2213 56.4583H62.0053L63.3433 52.5043H63.7693L62.3533 56.7043H61.8853L60.5953 52.9543H60.7153L59.4193 56.7043H58.9573ZM64.4758 56.7043V53.5543H64.9018V56.7043H64.4758ZM64.6918 52.8583C64.6038 52.8583 64.5298 52.8283 64.4698 52.7683C64.4098 52.7083 64.3798 52.6363 64.3798 52.5523C64.3798 52.4683 64.4098 52.3983 64.4698 52.3423C64.5298 52.2823 64.6038 52.2523 64.6918 52.2523C64.7798 52.2523 64.8538 52.2803 64.9138 52.3363C64.9738 52.3923 65.0038 52.4623 65.0038 52.5463C65.0038 52.6343 64.9738 52.7083 64.9138 52.7683C64.8578 52.8283 64.7838 52.8583 64.6918 52.8583ZM67.6952 53.5243C67.9512 53.5243 68.1752 53.5743 68.3672 53.6743C68.5632 53.7703 68.7152 53.9183 68.8232 54.1183C68.9352 54.3183 68.9912 54.5703 68.9912 54.8743V56.7043H68.5652V54.9163C68.5652 54.5843 68.4812 54.3343 68.3132 54.1663C68.1492 53.9943 67.9172 53.9083 67.6172 53.9083C67.3932 53.9083 67.1972 53.9543 67.0292 54.0463C66.8652 54.1343 66.7372 54.2643 66.6452 54.4363C66.5572 54.6043 66.5132 54.8083 66.5132 55.0483V56.7043H66.0872V53.5543H66.4952V54.4183L66.4292 54.2563C66.5292 54.0283 66.6892 53.8503 66.9092 53.7223C67.1292 53.5903 67.3912 53.5243 67.6952 53.5243ZM71.4859 57.8983C71.1979 57.8983 70.9219 57.8563 70.6579 57.7723C70.3939 57.6883 70.1799 57.5683 70.0159 57.4123L70.2319 57.0883C70.3799 57.2203 70.5619 57.3243 70.7779 57.4003C70.9979 57.4803 71.2299 57.5203 71.4739 57.5203C71.8739 57.5203 72.1679 57.4263 72.3559 57.2383C72.5439 57.0543 72.6379 56.7663 72.6379 56.3743V55.5883L72.6979 55.0483L72.6559 54.5083V53.5543H73.0639V56.3203C73.0639 56.8643 72.9299 57.2623 72.6619 57.5143C72.3979 57.7703 72.0059 57.8983 71.4859 57.8983ZM71.4079 56.5843C71.1079 56.5843 70.8379 56.5203 70.5979 56.3923C70.3579 56.2603 70.1679 56.0783 70.0279 55.8463C69.8919 55.6143 69.8239 55.3483 69.8239 55.0483C69.8239 54.7483 69.8919 54.4843 70.0279 54.2563C70.1679 54.0243 70.3579 53.8443 70.5979 53.7163C70.8379 53.5883 71.1079 53.5243 71.4079 53.5243C71.6879 53.5243 71.9399 53.5823 72.1639 53.6983C72.3879 53.8143 72.5659 53.9863 72.6979 54.2143C72.8299 54.4423 72.8959 54.7203 72.8959 55.0483C72.8959 55.3763 72.8299 55.6543 72.6979 55.8823C72.5659 56.1103 72.3879 56.2843 72.1639 56.4043C71.9399 56.5243 71.6879 56.5843 71.4079 56.5843ZM71.4499 56.2063C71.6819 56.2063 71.8879 56.1583 72.0679 56.0623C72.2479 55.9623 72.3899 55.8263 72.4939 55.6543C72.5979 55.4783 72.6499 55.2763 72.6499 55.0483C72.6499 54.8203 72.5979 54.6203 72.4939 54.4483C72.3899 54.2763 72.2479 54.1423 72.0679 54.0463C71.8879 53.9463 71.6819 53.8963 71.4499 53.8963C71.2219 53.8963 71.0159 53.9463 70.8319 54.0463C70.6519 54.1423 70.5099 54.2763 70.4059 54.4483C70.3059 54.6203 70.2559 54.8203 70.2559 55.0483C70.2559 55.2763 70.3059 55.4783 70.4059 55.6543C70.5099 55.8263 70.6519 55.9623 70.8319 56.0623C71.0159 56.1583 71.2219 56.2063 71.4499 56.2063ZM73.9913 57.5803L74.2553 56.4703L74.3033 56.7283C74.2113 56.7283 74.1333 56.6983 74.0693 56.6383C74.0093 56.5783 73.9793 56.5003 73.9793 56.4043C73.9793 56.3083 74.0093 56.2303 74.0693 56.1703C74.1333 56.1103 74.2093 56.0803 74.2973 56.0803C74.3893 56.0803 74.4633 56.1123 74.5193 56.1763C74.5793 56.2403 74.6093 56.3163 74.6093 56.4043C74.6093 56.4363 74.6073 56.4683 74.6033 56.5003C74.5993 56.5323 74.5913 56.5683 74.5793 56.6083C74.5673 56.6483 74.5513 56.6963 74.5313 56.7523L74.2793 57.5803H73.9913ZM77.1811 56.7043V52.5043H78.7531C79.1091 52.5043 79.4151 52.5623 79.6711 52.6783C79.9271 52.7903 80.1231 52.9543 80.2591 53.1703C80.3991 53.3823 80.4691 53.6403 80.4691 53.9443C80.4691 54.2403 80.3991 54.4963 80.2591 54.7123C80.1231 54.9243 79.9271 55.0883 79.6711 55.2043C79.4151 55.3163 79.1091 55.3723 78.7531 55.3723H77.4271L77.6251 55.1683V56.7043H77.1811ZM80.0491 56.7043L78.9691 55.1803H79.4491L80.5351 56.7043H80.0491ZM77.6251 55.2043L77.4271 54.9943H78.7411C79.1611 54.9943 79.4791 54.9023 79.6951 54.7183C79.9151 54.5343 80.0251 54.2763 80.0251 53.9443C80.0251 53.6083 79.9151 53.3483 79.6951 53.1643C79.4791 52.9803 79.1611 52.8883 78.7411 52.8883H77.4271L77.6251 52.6783V55.2043ZM83.341 56.7403C83.025 56.7403 82.733 56.6883 82.465 56.5843C82.197 56.4763 81.965 56.3263 81.769 56.1343C81.573 55.9423 81.419 55.7163 81.307 55.4563C81.199 55.1963 81.145 54.9123 81.145 54.6043C81.145 54.2963 81.199 54.0123 81.307 53.7523C81.419 53.4923 81.573 53.2663 81.769 53.0743C81.969 52.8823 82.203 52.7343 82.471 52.6303C82.739 52.5223 83.031 52.4683 83.347 52.4683C83.651 52.4683 83.937 52.5203 84.205 52.6243C84.473 52.7243 84.699 52.8763 84.883 53.0803L84.601 53.3623C84.429 53.1863 84.239 53.0603 84.031 52.9843C83.823 52.9043 83.599 52.8643 83.359 52.8643C83.107 52.8643 82.873 52.9083 82.657 52.9963C82.441 53.0803 82.253 53.2023 82.093 53.3623C81.933 53.5183 81.807 53.7023 81.715 53.9143C81.627 54.1223 81.583 54.3523 81.583 54.6043C81.583 54.8563 81.627 55.0883 81.715 55.3003C81.807 55.5083 81.933 55.6923 82.093 55.8523C82.253 56.0083 82.441 56.1303 82.657 56.2183C82.873 56.3023 83.107 56.3443 83.359 56.3443C83.599 56.3443 83.823 56.3043 84.031 56.2243C84.239 56.1443 84.429 56.0163 84.601 55.8403L84.883 56.1223C84.699 56.3263 84.473 56.4803 84.205 56.5843C83.937 56.6883 83.649 56.7403 83.341 56.7403ZM85.052 56.7043L86.972 52.5043H87.41L89.33 56.7043H88.862L87.098 52.7623H87.278L85.514 56.7043H85.052ZM85.808 55.5823L85.94 55.2223H88.382L88.514 55.5823H85.808ZM90.4208 54.5383H92.6408V54.9223H90.4208V54.5383ZM90.4688 56.7043H90.0248V52.5043H92.9048V52.8883H90.4688V56.7043ZM94.72 56.7043L96.64 52.5043H97.078L98.998 56.7043H98.53L96.766 52.7623H96.946L95.182 56.7043H94.72ZM95.476 55.5823L95.608 55.2223H98.05L98.182 55.5823H95.476ZM100.419 56.7343C100.159 56.7343 99.9135 56.6983 99.6815 56.6263C99.4495 56.5503 99.2675 56.4563 99.1355 56.3443L99.3275 56.0083C99.4555 56.1043 99.6195 56.1883 99.8195 56.2603C100.019 56.3283 100.229 56.3623 100.449 56.3623C100.749 56.3623 100.965 56.3163 101.097 56.2243C101.229 56.1283 101.295 56.0023 101.295 55.8463C101.295 55.7303 101.257 55.6403 101.181 55.5763C101.109 55.5083 101.013 55.4583 100.893 55.4263C100.773 55.3903 100.639 55.3603 100.491 55.3363C100.343 55.3123 100.195 55.2843 100.047 55.2523C99.9035 55.2203 99.7715 55.1743 99.6515 55.1143C99.5315 55.0503 99.4335 54.9643 99.3575 54.8563C99.2855 54.7483 99.2495 54.6043 99.2495 54.4243C99.2495 54.2523 99.2975 54.0983 99.3935 53.9623C99.4895 53.8263 99.6295 53.7203 99.8135 53.6443C100.001 53.5643 100.229 53.5243 100.497 53.5243C100.701 53.5243 100.905 53.5523 101.109 53.6083C101.313 53.6603 101.481 53.7303 101.613 53.8183L101.427 54.1603C101.287 54.0643 101.137 53.9963 100.977 53.9563C100.817 53.9123 100.657 53.8903 100.497 53.8903C100.213 53.8903 100.003 53.9403 99.8675 54.0403C99.7355 54.1363 99.6695 54.2603 99.6695 54.4123C99.6695 54.5323 99.7055 54.6263 99.7775 54.6943C99.8535 54.7623 99.9515 54.8163 100.071 54.8563C100.195 54.8923 100.329 54.9223 100.473 54.9463C100.621 54.9703 100.767 55.0003 100.911 55.0363C101.059 55.0683 101.193 55.1143 101.313 55.1743C101.437 55.2303 101.535 55.3123 101.607 55.4203C101.683 55.5243 101.721 55.6623 101.721 55.8343C101.721 56.0183 101.669 56.1783 101.565 56.3143C101.465 56.4463 101.317 56.5503 101.121 56.6263C100.929 56.6983 100.695 56.7343 100.419 56.7343ZM103.349 56.7343C103.089 56.7343 102.843 56.6983 102.611 56.6263C102.379 56.5503 102.197 56.4563 102.065 56.3443L102.257 56.0083C102.385 56.1043 102.549 56.1883 102.749 56.2603C102.949 56.3283 103.159 56.3623 103.379 56.3623C103.679 56.3623 103.895 56.3163 104.027 56.2243C104.159 56.1283 104.225 56.0023 104.225 55.8463C104.225 55.7303 104.187 55.6403 104.111 55.5763C104.039 55.5083 103.943 55.4583 103.823 55.4263C103.703 55.3903 103.569 55.3603 103.421 55.3363C103.273 55.3123 103.125 55.2843 102.977 55.2523C102.833 55.2203 102.701 55.1743 102.581 55.1143C102.461 55.0503 102.363 54.9643 102.287 54.8563C102.215 54.7483 102.179 54.6043 102.179 54.4243C102.179 54.2523 102.227 54.0983 102.323 53.9623C102.419 53.8263 102.559 53.7203 102.743 53.6443C102.931 53.5643 103.159 53.5243 103.427 53.5243C103.631 53.5243 103.835 53.5523 104.039 53.6083C104.243 53.6603 104.411 53.7303 104.543 53.8183L104.357 54.1603C104.217 54.0643 104.067 53.9963 103.907 53.9563C103.747 53.9123 103.587 53.8903 103.427 53.8903C103.143 53.8903 102.933 53.9403 102.797 54.0403C102.665 54.1363 102.599 54.2603 102.599 54.4123C102.599 54.5323 102.635 54.6263 102.707 54.6943C102.783 54.7623 102.881 54.8163 103.001 54.8563C103.125 54.8923 103.259 54.9223 103.403 54.9463C103.551 54.9703 103.697 55.0003 103.841 55.0363C103.989 55.0683 104.123 55.1143 104.243 55.1743C104.367 55.2303 104.465 55.3123 104.537 55.4203C104.613 55.5243 104.651 55.6623 104.651 55.8343C104.651 56.0183 104.599 56.1783 104.495 56.3143C104.395 56.4463 104.247 56.5503 104.051 56.6263C103.859 56.6983 103.625 56.7343 103.349 56.7343ZM106.717 56.7343C106.413 56.7343 106.139 56.6663 105.895 56.5303C105.655 56.3903 105.465 56.2003 105.325 55.9603C105.185 55.7163 105.115 55.4383 105.115 55.1263C105.115 54.8103 105.185 54.5323 105.325 54.2923C105.465 54.0523 105.655 53.8643 105.895 53.7283C106.135 53.5923 106.409 53.5243 106.717 53.5243C107.029 53.5243 107.305 53.5923 107.545 53.7283C107.789 53.8643 107.979 54.0523 108.115 54.2923C108.255 54.5323 108.325 54.8103 108.325 55.1263C108.325 55.4383 108.255 55.7163 108.115 55.9603C107.979 56.2003 107.789 56.3903 107.545 56.5303C107.301 56.6663 107.025 56.7343 106.717 56.7343ZM106.717 56.3563C106.945 56.3563 107.147 56.3063 107.323 56.2063C107.499 56.1023 107.637 55.9583 107.737 55.7743C107.841 55.5863 107.893 55.3703 107.893 55.1263C107.893 54.8783 107.841 54.6623 107.737 54.4783C107.637 54.2943 107.499 54.1523 107.323 54.0523C107.147 53.9483 106.947 53.8963 106.723 53.8963C106.499 53.8963 106.299 53.9483 106.123 54.0523C105.947 54.1523 105.807 54.2943 105.703 54.4783C105.599 54.6623 105.547 54.8783 105.547 55.1263C105.547 55.3703 105.599 55.5863 105.703 55.7743C105.807 55.9583 105.947 56.1023 106.123 56.2063C106.299 56.3063 106.497 56.3563 106.717 56.3563ZM110.503 56.7343C110.191 56.7343 109.911 56.6663 109.663 56.5303C109.419 56.3903 109.227 56.2003 109.087 55.9603C108.947 55.7163 108.877 55.4383 108.877 55.1263C108.877 54.8103 108.947 54.5323 109.087 54.2923C109.227 54.0523 109.419 53.8643 109.663 53.7283C109.911 53.5923 110.191 53.5243 110.503 53.5243C110.771 53.5243 111.013 53.5763 111.229 53.6803C111.445 53.7843 111.615 53.9403 111.739 54.1483L111.421 54.3643C111.313 54.2043 111.179 54.0863 111.019 54.0103C110.859 53.9343 110.685 53.8963 110.497 53.8963C110.273 53.8963 110.071 53.9483 109.891 54.0523C109.711 54.1523 109.569 54.2943 109.465 54.4783C109.361 54.6623 109.309 54.8783 109.309 55.1263C109.309 55.3743 109.361 55.5903 109.465 55.7743C109.569 55.9583 109.711 56.1023 109.891 56.2063C110.071 56.3063 110.273 56.3563 110.497 56.3563C110.685 56.3563 110.859 56.3183 111.019 56.2423C111.179 56.1663 111.313 56.0503 111.421 55.8943L111.739 56.1103C111.615 56.3143 111.445 56.4703 111.229 56.5783C111.013 56.6823 110.771 56.7343 110.503 56.7343ZM112.529 56.7043V53.5543H112.955V56.7043H112.529ZM112.745 52.8583C112.657 52.8583 112.583 52.8283 112.523 52.7683C112.463 52.7083 112.433 52.6363 112.433 52.5523C112.433 52.4683 112.463 52.3983 112.523 52.3423C112.583 52.2823 112.657 52.2523 112.745 52.2523C112.833 52.2523 112.907 52.2803 112.967 52.3363C113.027 52.3923 113.057 52.4623 113.057 52.5463C113.057 52.6343 113.027 52.7083 112.967 52.7683C112.911 52.8283 112.837 52.8583 112.745 52.8583ZM116.114 56.7043V56.0083L116.096 55.8943V54.7303C116.096 54.4623 116.02 54.2563 115.868 54.1123C115.72 53.9683 115.498 53.8963 115.202 53.8963C114.998 53.8963 114.804 53.9303 114.62 53.9983C114.436 54.0663 114.28 54.1563 114.152 54.2683L113.96 53.9503C114.12 53.8143 114.312 53.7103 114.536 53.6383C114.76 53.5623 114.996 53.5243 115.244 53.5243C115.652 53.5243 115.966 53.6263 116.186 53.8303C116.41 54.0303 116.522 54.3363 116.522 54.7483V56.7043H116.114ZM115.028 56.7343C114.792 56.7343 114.586 56.6963 114.41 56.6203C114.238 56.5403 114.106 56.4323 114.014 56.2963C113.922 56.1563 113.876 55.9963 113.876 55.8163C113.876 55.6523 113.914 55.5043 113.99 55.3723C114.07 55.2363 114.198 55.1283 114.374 55.0483C114.554 54.9643 114.794 54.9223 115.094 54.9223H116.18V55.2403H115.106C114.802 55.2403 114.59 55.2943 114.47 55.4023C114.354 55.5103 114.296 55.6443 114.296 55.8043C114.296 55.9843 114.366 56.1283 114.506 56.2363C114.646 56.3443 114.842 56.3983 115.094 56.3983C115.334 56.3983 115.54 56.3443 115.712 56.2363C115.888 56.1243 116.016 55.9643 116.096 55.7563L116.192 56.0503C116.112 56.2583 115.972 56.4243 115.772 56.5483C115.576 56.6723 115.328 56.7343 115.028 56.7343ZM118.675 56.7343C118.379 56.7343 118.151 56.6543 117.991 56.4943C117.831 56.3343 117.751 56.1083 117.751 55.8163V52.8583H118.177V55.7923C118.177 55.9763 118.223 56.1183 118.315 56.2183C118.411 56.3183 118.547 56.3683 118.723 56.3683C118.911 56.3683 119.067 56.3143 119.191 56.2063L119.341 56.5123C119.257 56.5883 119.155 56.6443 119.035 56.6803C118.919 56.7163 118.799 56.7343 118.675 56.7343ZM117.187 53.9083V53.5543H119.137V53.9083H117.187ZM120.116 56.7043V53.5543H120.542V56.7043H120.116ZM120.332 52.8583C120.244 52.8583 120.17 52.8283 120.11 52.7683C120.05 52.7083 120.02 52.6363 120.02 52.5523C120.02 52.4683 120.05 52.3983 120.11 52.3423C120.17 52.2823 120.244 52.2523 120.332 52.2523C120.42 52.2523 120.494 52.2803 120.554 52.3363C120.614 52.3923 120.644 52.4623 120.644 52.5463C120.644 52.6343 120.614 52.7083 120.554 52.7683C120.498 52.8283 120.424 52.8583 120.332 52.8583ZM123.012 56.7343C122.708 56.7343 122.434 56.6663 122.19 56.5303C121.95 56.3903 121.76 56.2003 121.62 55.9603C121.48 55.7163 121.41 55.4383 121.41 55.1263C121.41 54.8103 121.48 54.5323 121.62 54.2923C121.76 54.0523 121.95 53.8643 122.19 53.7283C122.43 53.5923 122.704 53.5243 123.012 53.5243C123.324 53.5243 123.6 53.5923 123.84 53.7283C124.084 53.8643 124.274 54.0523 124.41 54.2923C124.55 54.5323 124.62 54.8103 124.62 55.1263C124.62 55.4383 124.55 55.7163 124.41 55.9603C124.274 56.2003 124.084 56.3903 123.84 56.5303C123.596 56.6663 123.32 56.7343 123.012 56.7343ZM123.012 56.3563C123.24 56.3563 123.442 56.3063 123.618 56.2063C123.794 56.1023 123.932 55.9583 124.032 55.7743C124.136 55.5863 124.188 55.3703 124.188 55.1263C124.188 54.8783 124.136 54.6623 124.032 54.4783C123.932 54.2943 123.794 54.1523 123.618 54.0523C123.442 53.9483 123.242 53.8963 123.018 53.8963C122.794 53.8963 122.594 53.9483 122.418 54.0523C122.242 54.1523 122.102 54.2943 121.998 54.4783C121.894 54.6623 121.842 54.8783 121.842 55.1263C121.842 55.3703 121.894 55.5863 121.998 55.7743C122.102 55.9583 122.242 56.1023 122.418 56.2063C122.594 56.3063 122.792 56.3563 123.012 56.3563ZM127.098 53.5243C127.354 53.5243 127.578 53.5743 127.77 53.6743C127.966 53.7703 128.118 53.9183 128.226 54.1183C128.338 54.3183 128.394 54.5703 128.394 54.8743V56.7043H127.968V54.9163C127.968 54.5843 127.884 54.3343 127.716 54.1663C127.552 53.9943 127.32 53.9083 127.02 53.9083C126.796 53.9083 126.6 53.9543 126.432 54.0463C126.268 54.1343 126.14 54.2643 126.048 54.4363C125.96 54.6043 125.916 54.8083 125.916 55.0483V56.7043H125.49V53.5543H125.898V54.4183L125.832 54.2563C125.932 54.0283 126.092 53.8503 126.312 53.7223C126.532 53.5903 126.794 53.5243 127.098 53.5243Z" fill="#F6EFE8"/>
<g clip-path="url(#clip0_1475_268)">
<path d="M25.2958 8.78469C26.5944 7.19468 28.1701 5.98309 30.0295 5.15311C31.8888 4.28814 33.9737 3.85566 36.2873 3.85566C38.601 3.85566 40.6859 4.28814 42.5452 5.15311C44.4045 5.98309 45.9803 7.19468 47.2789 8.78469C48.4454 10.1839 49.3702 11.8693 50.0534 13.8282H56.5723C56.5401 13.7551 56.5143 13.6819 56.4821 13.612C55.3607 11.087 53.8171 8.88963 51.8547 7.01978C49.8923 5.14993 47.5786 3.68076 44.9137 2.60909C42.2488 1.53742 39.3744 1 36.2906 1C33.2067 1 30.3291 1.53742 27.6675 2.60909C25.0025 3.68076 22.6889 5.15311 20.7264 7.01978C18.764 8.88963 17.2205 11.0838 16.0991 13.612C16.0669 13.6819 16.0411 13.7582 16.0089 13.8282H22.5277C23.2109 11.8693 24.1357 10.1839 25.3022 8.78469H25.2958Z" fill="#F6EFE8"/>
<path d="M47.2499 34.527C45.9513 36.0152 44.3756 37.1569 42.5163 37.9519C40.6924 38.7469 38.6236 39.1444 36.3099 39.1444C33.9963 39.1444 31.9114 38.7469 30.0521 37.9519C28.1927 37.1569 26.617 36.0152 25.3184 34.527C24.1422 33.1755 23.2206 31.5569 22.5342 29.6902H16.112C16.112 29.6902 16.112 29.6965 16.1152 29.6997C17.2721 32.1547 18.8317 34.3012 20.7941 36.1361C22.7566 37.936 25.0702 39.3702 27.7352 40.445C30.4001 41.4817 33.2583 42.0032 36.3067 42.0032C39.3551 42.0032 42.2134 41.4849 44.8783 40.445C47.5432 39.3733 49.8569 37.936 51.8193 36.1361C53.7817 34.3012 55.3252 32.1579 56.4466 29.6997C56.4466 29.6997 56.4466 29.6934 56.4499 29.6902H50.076C49.3864 31.5537 48.4519 33.1755 47.2403 34.527H47.2499Z" fill="#F6EFE8"/>
<path d="M29.588 19.8639C24.5675 19.4982 12.1484 17.7237 9.54474 17.6347C6.91849 17.5456 1.77233 16.7316 0.293258 18.9035C-0.673459 20.3218 0.8894 23.788 2.79061 24.4717C6.66392 25.8646 15.8928 25.3717 17.3042 25.3081C24.3709 24.9774 27.574 24.0806 29.5558 23.5495C29.3721 22.8817 29.2883 22.1789 29.3205 21.4507C29.3463 20.9006 29.4398 20.3727 29.588 19.8671V19.8639Z" fill="#F6EFE8"/>
<path d="M41.2673 22.2612C41.3874 19.5468 39.255 17.2503 36.5045 17.1318C33.7539 17.0133 31.4268 19.1176 31.3067 21.832C31.1866 24.5464 33.319 26.8429 36.0696 26.9614C38.8201 27.0799 41.1472 24.9756 41.2673 22.2612Z" fill="#F6EFE8"/>
<path d="M43.412 23.6131C48.4325 23.9788 60.8516 25.7532 63.4553 25.8422C66.0816 25.9313 71.2277 26.7454 72.7068 24.5734C73.6735 23.1551 72.1106 19.6889 70.2094 19.0052C66.3361 17.6124 57.1072 18.1053 55.6958 18.1689C48.6291 18.4996 45.426 19.3963 43.4443 19.9274C43.628 20.5952 43.7117 21.298 43.6795 22.0262C43.6537 22.5764 43.5603 23.1043 43.412 23.6099V23.6131Z" fill="#F6EFE8"/>
</g>
<defs>
<clipPath id="clip0_1475_268">
<rect width="73" height="41" fill="white" transform="translate(0 1)"/>
</clipPath>
</defs>
</svg>
