<svg width="30" height="30" viewBox="0 0 30 30" fill="none" xmlns="http://www.w3.org/2000/svg">
<path d="M22.955 21.705L15 29.6599L7.04505 21.705C2.65165 17.3115 2.65165 10.1884 7.04505 5.79505C11.4384 1.40165 18.5615 1.40165 22.955 5.79505C27.3484 10.1884 27.3484 17.3115 22.955 21.705ZM15 18.75C17.7614 18.75 20 16.5114 20 13.75C20 10.9886 17.7614 8.75 15 8.75C12.2386 8.75 10 10.9886 10 13.75C10 16.5114 12.2386 18.75 15 18.75ZM15 16.25C13.6193 16.25 12.5 15.1307 12.5 13.75C12.5 12.3693 13.6193 11.25 15 11.25C16.3807 11.25 17.5 12.3693 17.5 13.75C17.5 15.1307 16.3807 16.25 15 16.25Z" fill="#315C77"/>
</svg>
