<svg width="25" height="25" viewBox="0 0 25 25" fill="none" xmlns="http://www.w3.org/2000/svg">
<path d="M12.5 0C10.0277 0 7.61099 0.710908 5.55538 2.04283C3.49976 3.37474 1.89761 5.26785 0.951511 7.48275C0.0054161 9.69764 -0.242126 12.1349 0.24019 14.4862C0.722505 16.8375 1.91301 18.9973 3.66117 20.6925C5.40933 22.3878 7.63661 23.5422 10.0614 24.0099C12.4861 24.4776 14.9995 24.2376 17.2835 23.3201C19.5676 22.4027 21.5199 20.8491 22.8934 18.8557C24.2669 16.8623 25 14.5188 25 12.1214C25 10.5296 24.6767 8.95338 24.0485 7.48275C23.4203 6.01211 22.4996 4.67586 21.3388 3.55028C20.1781 2.4247 18.8001 1.53185 17.2835 0.922687C15.767 0.31353 14.1415 0 12.5 0ZM12.5 21.8185C10.5222 21.8185 8.58879 21.2498 6.9443 20.1843C5.29981 19.1187 4.01809 17.6043 3.26121 15.8323C2.50433 14.0604 2.3063 12.1107 2.69215 10.2296C3.078 8.34854 4.03041 6.62067 5.42894 5.2645C6.82746 3.90834 8.60929 2.98478 10.5491 2.61061C12.4889 2.23644 14.4996 2.42848 16.3268 3.16243C18.1541 3.89638 19.7159 5.13929 20.8147 6.73397C21.9135 8.32866 22.5 10.2035 22.5 12.1214C22.5 14.6932 21.4464 17.1597 19.5711 18.9783C17.6957 20.7969 15.1522 21.8185 12.5 21.8185ZM17.5 10.9093H7.5C7.16848 10.9093 6.85054 11.037 6.61612 11.2643C6.3817 11.4916 6.25 11.7999 6.25 12.1214C6.25 12.4429 6.3817 12.7512 6.61612 12.9785C6.85054 13.2058 7.16848 13.3336 7.5 13.3336H17.5C17.8315 13.3336 18.1495 13.2058 18.3839 12.9785C18.6183 12.7512 18.75 12.4429 18.75 12.1214C18.75 11.7999 18.6183 11.4916 18.3839 11.2643C18.1495 11.037 17.8315 10.9093 17.5 10.9093Z" fill="black"/>
</svg>
