<svg width="112" height="112" viewBox="0 0 112 112" fill="none" xmlns="http://www.w3.org/2000/svg">
<path d="M56 0C59.0929 0 61.6 2.50723 61.6 5.6C61.6 8.69277 59.0929 11.2 56 11.2C31.2576 11.2 11.2 31.2576 11.2 56C11.2 80.7425 31.2576 100.8 56 100.8C80.7425 100.8 100.8 80.7425 100.8 56C100.8 52.9071 103.307 50.4 106.4 50.4C109.493 50.4 112 52.9071 112 56C112 86.9277 86.9277 112 56 112C25.072 112 0 86.9277 0 56C0 25.072 25.072 0 56 0ZM56 22.4C59.0929 22.4 61.6 24.9072 61.6 28C61.6 31.0928 59.0929 33.6 56 33.6C43.6288 33.6 33.6 43.6288 33.6 56C33.6 68.371 43.6288 78.4 56 78.4C68.371 78.4 78.4 68.371 78.4 56C78.4 52.9071 80.9071 50.4 84 50.4C87.0929 50.4 89.6 52.9071 89.6 56C89.6 74.5567 74.5567 89.6 56 89.6C37.4432 89.6 22.4 74.5567 22.4 56C22.4 37.4432 37.4432 22.4 56 22.4ZM92.7993 0.563304C94.3454 0.56336 95.5987 1.81714 95.5993 3.3633V13.6063C95.601 15.151 96.8542 16.4005 98.3993 16.4008H108.637C110.182 16.4008 111.436 17.6554 111.437 19.2008V24.325L100.86 34.9016C98.7605 37.0003 95.9101 38.1821 92.9415 38.1828H81.7415L59.9592 59.9592C57.7724 62.1454 54.2276 62.146 52.0408 59.9592C49.8551 57.7724 49.8546 54.227 52.0408 52.0408L73.8226 30.2641V19.0641C73.8226 16.095 74.9997 13.2455 77.0986 11.1453L87.6803 0.563304H92.7993Z" fill="white"/>
</svg>
