<svg width="30" height="30" viewBox="0 0 30 30" fill="none" xmlns="http://www.w3.org/2000/svg">
<g clip-path="url(#clip0_1434_249)">
<path d="M15 27.5C12.5277 27.5 10.111 26.7669 8.05538 25.3934C5.99976 24.0199 4.39761 22.0676 3.45151 19.7835C2.50542 17.4995 2.25787 14.9861 2.74019 12.5614C3.2225 10.1366 4.41301 7.90932 6.16117 6.16117C7.90933 4.41301 10.1366 3.2225 12.5614 2.74018C14.9861 2.25787 17.4995 2.50541 19.7836 3.45151C22.0676 4.3976 24.0199 5.99976 25.3934 8.05537C26.7669 10.111 27.5 12.5277 27.5 15C27.5 16.6415 27.1767 18.267 26.5485 19.7835C25.9203 21.3001 24.9996 22.6781 23.8388 23.8388C22.6781 24.9996 21.3001 25.9203 19.7836 26.5485C18.267 27.1767 16.6415 27.5 15 27.5ZM15 5C13.0222 5 11.0888 5.58649 9.4443 6.68531C7.79981 7.78412 6.51809 9.34591 5.76121 11.1732C5.00433 13.0004 4.8063 15.0111 5.19215 16.9509C5.57801 18.8907 6.53041 20.6725 7.92894 22.0711C9.32746 23.4696 11.1093 24.422 13.0491 24.8079C14.9889 25.1937 16.9996 24.9957 18.8268 24.2388C20.6541 23.4819 22.2159 22.2002 23.3147 20.5557C24.4135 18.9112 25 16.9778 25 15C25 12.3478 23.9464 9.8043 22.0711 7.92893C20.1957 6.05357 17.6522 5 15 5Z" fill="black"/>
<path d="M18.75 16.25H16.25V18.75C16.25 19.0815 16.1183 19.3995 15.8839 19.6339C15.6495 19.8683 15.3315 20 15 20C14.6685 20 14.3505 19.8683 14.1161 19.6339C13.8817 19.3995 13.75 19.0815 13.75 18.75V16.25H11.25C10.9185 16.25 10.6005 16.1183 10.3661 15.8839C10.1317 15.6495 10 15.3315 10 15C10 14.6685 10.1317 14.3505 10.3661 14.1161C10.6005 13.8817 10.9185 13.75 11.25 13.75H13.75V11.25C13.75 10.9185 13.8817 10.6005 14.1161 10.3661C14.3505 10.1317 14.6685 10 15 10C15.3315 10 15.6495 10.1317 15.8839 10.3661C16.1183 10.6005 16.25 10.9185 16.25 11.25V13.75H18.75C19.0815 13.75 19.3995 13.8817 19.6339 14.1161C19.8683 14.3505 20 14.6685 20 15C20 15.3315 19.8683 15.6495 19.6339 15.8839C19.3995 16.1183 19.0815 16.25 18.75 16.25Z" fill="black"/>
</g>
<defs>
<clipPath id="clip0_1434_249">
<rect width="30" height="30" fill="white" transform="matrix(1 0 0 -1 0 30)"/>
</clipPath>
</defs>
</svg>
