<svg width="55" height="56" viewBox="0 0 55 56" fill="none" xmlns="http://www.w3.org/2000/svg">
<path d="M10.2754 43.1441C12.7546 41.3046 15.4554 39.8519 18.3779 38.7858C21.2999 37.7203 24.4101 37.1875 27.7083 37.1875C31.0066 37.1875 34.1167 37.7203 37.0388 38.7858C39.9613 39.8519 42.6621 41.3046 45.1413 43.1441C46.9544 41.151 48.3911 38.8439 49.4514 36.2228C50.5116 33.6017 51.0417 30.7635 51.0417 27.7083C51.0417 21.2431 48.7691 15.7378 44.224 11.1927C39.6788 6.64757 34.1736 4.375 27.7083 4.375C21.2431 4.375 15.7378 6.64757 11.1927 11.1927C6.64757 15.7378 4.375 21.2431 4.375 27.7083C4.375 30.7635 4.9051 33.6017 5.96531 36.2228C7.02552 38.8439 8.46222 41.151 10.2754 43.1441ZM20.9723 27.1527C19.1435 25.3244 18.2292 23.0791 18.2292 20.4167C18.2292 17.7542 19.1435 15.5089 20.9723 13.6806C22.8006 11.8519 25.0459 10.9375 27.7083 10.9375C30.3708 10.9375 32.6161 11.8519 34.4444 13.6806C36.2731 15.5089 37.1875 17.7542 37.1875 20.4167C37.1875 23.0791 36.2731 25.3244 34.4444 27.1527C32.6161 28.9815 30.3708 29.8958 27.7083 29.8958C25.0459 29.8958 22.8006 28.9815 20.9723 27.1527ZM27.7083 55.4167C23.8608 55.4167 20.2514 54.6931 16.8802 53.2459C13.509 51.7988 10.5766 49.8281 8.08281 47.3339C5.58858 44.8401 3.61788 41.9076 2.17073 38.5365C0.723577 35.1653 0 31.5559 0 27.7083C0 23.8608 0.723577 20.2514 2.17073 16.8802C3.61788 13.509 5.58858 10.5766 8.08281 8.08281C10.5766 5.58857 13.509 3.61788 16.8802 2.17073C20.2514 0.723578 23.8608 0 27.7083 0C31.5559 0 35.1653 0.723578 38.5365 2.17073C41.9076 3.61788 44.8401 5.58857 47.3339 8.08281C49.8281 10.5766 51.7988 13.509 53.2459 16.8802C54.6931 20.2514 55.4167 23.8608 55.4167 27.7083C55.4167 31.5559 54.6931 35.1653 53.2459 38.5365C51.7988 41.9076 49.8281 44.8401 47.3339 47.3339C44.8401 49.8281 41.9076 51.7988 38.5365 53.2459C35.1653 54.6931 31.5559 55.4167 27.7083 55.4167ZM35.3223 49.7715C37.766 48.9242 39.9357 47.7398 41.8316 46.2182C39.9357 44.7521 37.7942 43.6098 35.4069 42.7911C33.0191 41.972 30.4529 41.5625 27.7083 41.5625C24.9638 41.5625 22.393 41.9672 19.9959 42.7766C17.5989 43.5864 15.462 44.7336 13.5851 46.2182C15.4809 47.7398 17.6507 48.9242 20.0944 49.7715C22.5381 50.6183 25.076 51.0417 27.7083 51.0417C30.3406 51.0417 32.8786 50.6183 35.3223 49.7715ZM31.3483 24.0567C32.3244 23.081 32.8125 21.8677 32.8125 20.4167C32.8125 18.9656 32.3244 17.7523 31.3483 16.7767C30.3727 15.8006 29.1594 15.3125 27.7083 15.3125C26.2573 15.3125 25.044 15.8006 24.0683 16.7767C23.0922 17.7523 22.6042 18.9656 22.6042 20.4167C22.6042 21.8677 23.0922 23.081 24.0683 24.0567C25.044 25.0328 26.2573 25.5208 27.7083 25.5208C29.1594 25.5208 30.3727 25.0328 31.3483 24.0567Z" fill="#305D79"/>
</svg>
