<svg width="104" height="130" viewBox="0 0 104 130" fill="none" xmlns="http://www.w3.org/2000/svg">
<path d="M52 0L99.4754 10.7899C102.119 11.3907 104 13.7887 104 16.5583V75.5708C104 87.425 98.2072 98.4951 88.5629 105.071L52 130L15.4371 105.071C5.79286 98.4951 0 87.425 0 75.5708V16.5583C0 13.7887 1.88084 11.3907 4.52441 10.7899L52 0ZM52 12.1065L11.5556 21.2984V75.5708C11.5556 83.4736 15.4174 90.8535 21.8469 95.2374L52 115.796L82.1531 95.2374C88.5826 90.8535 92.4444 83.4736 92.4444 75.5708V21.2984L52 12.1065ZM77.725 42.6745L85.8959 51.0311L49.1261 88.6364L24.6133 63.5665L32.7843 55.2092L49.1221 71.919L77.725 42.6745Z" fill="#315C77"/>
</svg>
